<?xml version="1.0" standalone="no"?>
<!DOCTYPE svg PUBLIC "-//W3C//DTD SVG 1.1//EN" "http://www.w3.org/Graphics/SVG/1.1/DTD/svg11.dtd" >
<svg xmlns="http://www.w3.org/2000/svg" xmlns:xlink="http://www.w3.org/1999/xlink" version="1.1">
<metadata>
Created by FontForge 20170731 at Sun Oct 17 18:52:04 2004
 By Aleksey,,,
Copyright (c) James Arboghast/Sentinel Type, 2002. All rights reserved. Please distribute this font. This font is free but the font data &#38; design are copyrighted. Font data is protected by law. You may use it free of charge for any personal use; for commercial use you must purchase a commercial license from www.myfonts.com You may upload this free version to archive sites &#38; include it in CD ROM collections, but you may not charge money for it, modify, rename or claim it as your own work.
</metadata>
<defs>
<font id="Maus" horiz-adv-x="1261" >
  <font-face 
    font-family="Maus"
    font-weight="400"
    font-stretch="normal"
    units-per-em="2048"
    panose-1="4 3 9 4 4 1 1 1 3 2"
    ascent="1638"
    descent="-410"
    x-height="1496"
    cap-height="1496"
    bbox="0 -647 2238 1930"
    underline-thickness="80"
    underline-position="-470"
    unicode-range="U+0020-FB02"
  />
<missing-glyph horiz-adv-x="1229" 
d="M102 -362v1806h1024v-1806h-1024zM217 -248h795v1577h-795v-1577z" />
    <glyph glyph-name=".notdef" horiz-adv-x="1229" 
d="M102 -362v1806h1024v-1806h-1024zM217 -248h795v1577h-795v-1577z" />
    <glyph glyph-name="glyph1" horiz-adv-x="0" 
 />
    <glyph glyph-name="nonmarkingreturn" horiz-adv-x="467" 
 />
    <glyph glyph-name="space" unicode=" " horiz-adv-x="467" 
 />
    <glyph glyph-name="space" unicode="&#xa0;" horiz-adv-x="467" 
 />
    <glyph glyph-name="exclam" unicode="!" horiz-adv-x="628" 
d="M110 331l-35 35h-6l-69 864v266h401v-6l147 -147v-263l-68 -848l54 -54v-375h-367l-147 147h-6v381h96zM50 1446v-212l66 -818h169l66 818v212h-301zM337 0v281h-273v-281h273z" />
    <glyph glyph-name="quotedbl" unicode="&#x22;" horiz-adv-x="959" 
d="M503 841v-26h-350l-147 147h-6v684h356v-6l20 -20v26h356v-6l147 -147v-678h-350zM306 1012v584h-256v-584h256zM682 1012v584h-256v-584h256z" />
    <glyph glyph-name="numbersign" unicode="#" horiz-adv-x="1646" 
d="M853 1365l15 131h318l-1 -6l148 -147l-29 -254h115l-1 -6l148 -147l-37 -291h-148l144 -144l-34 -290h-285l-46 -408h-311l-131 131l-15 -131h-311l-147 147h-6l28 261h-114l-147 147h-6l40 296h142l-138 138h-6l37 297h291l46 407h318l-1 -6zM1130 1446h-217l-46 -407
h-237l44 407h-217l-46 -407h-291l-25 -197h294l-28 -238h-277l-27 -196h282l-44 -408h216l46 408h240l-45 -408h216l46 408h285l23 196h-285l26 238h274l25 197h-278zM576 602l28 240h245l-27 -240h-246z" />
    <glyph glyph-name="dollar" unicode="$" horiz-adv-x="1142" 
d="M560 923v-28l335 -251v-4l147 -147v-690h-283v-150h-334l-147 147h-6v3h-119l-147 147h-6v550h403v-6l88 -88v39l-328 248l-137 136l-16 13v654h274v151h340v-6l145 -145h117v-6l147 -147v-524h-369zM334 1446h-274v-579l481 -363v-230h-188v176h-303v-450h272v-150h240
v150h283v619l-482 362v189h198v-154h275v430h-262v151h-240v-151z" />
    <glyph glyph-name="percent" unicode="%" horiz-adv-x="1617" 
d="M792 1053l349 472l200 -138l-2 -3l148 -148l-344 -461h247v-6l147 -147v-602l-178 -217h-461l-147 147h-6v290l-349 -468l-177 147l-130 130l-24 20l336 455h-248l-147 147h-6v606l181 219h464v-6l147 -147v-290zM1340 725h-402l-143 -187v-538h392l153 187v538z
M595 1446h-391l-154 -187v-538h402l143 187v538zM238 -10l1032 1385l-117 81l-1020 -1379zM998 541h139v-357h-139v357zM255 1262h137v-357h-137v357z" />
    <glyph glyph-name="ampersand" unicode="&#x26;" horiz-adv-x="1159" 
d="M1020 819l39 -39v-977h-662l-397 375v605h119l-96 72v641h653l236 -220v-4l147 -147v-306h-39zM254 733h-204v-534l215 -199h597v540h-301v-266h-198v340h499v269h-499v288h199v-155h300v239l-205 191h-584v-569z" />
    <glyph glyph-name="quotesingle" unicode="'" horiz-adv-x="583" 
d="M6 962h-6v684h356v-6l147 -147v-678h-350zM306 1012v584h-256v-584h256z" />
    <glyph glyph-name="parenleft" unicode="(" horiz-adv-x="792" 
d="M233 -200h-4l-229 236v1377l230 233h335v-6l147 -147v-367h-231v-952h84v-6l147 -147v-368h-332zM284 1323h231v273h-265l-200 -203v-1336l200 -207h265v274h-231v1199z" />
    <glyph glyph-name="parenright" unicode=")" horiz-adv-x="792" 
d="M0 174h231v952h-78l-147 147h-6v373h335l230 -233v-2l147 -149v-1375l-227 -234h-332l-147 147h-6v374zM281 124h-231v-274h265l200 207v1336l-200 203h-265v-273h231v-1199z" />
    <glyph glyph-name="asterisk" unicode="*" horiz-adv-x="1147" 
d="M771 1360l55 23l2 -9l146 -145l93 -307l-222 -58l155 -192l-266 -193l-148 148l-3 -2l-3 4l-95 -149l-263 192l-139 139l-15 11l84 102l-144 144l-8 2l94 313l212 -90l-12 235h332l-1 -6l148 -147zM553 1216l19 262h-225l14 -262l-235 100l-63 -211l250 -65l-173 -209
l182 -133l146 227l131 -227l183 133l-169 209l245 65l-64 211z" />
    <glyph glyph-name="plus" unicode="+" horiz-adv-x="1307" 
d="M0 860h380v410h300v-6l147 -147v-257h233v-6l147 -147v-294h-380v-410h-294l-147 147h-6v263h-227l-147 147h-6v300zM430 810h-380v-200h380v-410h200v410h380v200h-380v410h-200v-410z" />
    <glyph glyph-name="comma" unicode="," horiz-adv-x="645" 
d="M60 -92l-42 42h-6v425h406v-6l147 -147v-386l-205 -313l-206 142l-141 141l-13 9zM180 0l-112 -172l129 -89l171 261v325h-306v-325h118z" />
    <glyph glyph-name="hyphen" unicode="-" horiz-adv-x="756" 
d="M6 560h-6v310h529v-6l147 -147v-304h-523zM479 610v210h-429v-210h429z" />
    <glyph glyph-name="hyphen" unicode="&#xad;" horiz-adv-x="756" 
d="M6 560h-6v310h529v-6l147 -147v-304h-523zM479 610v210h-429v-210h429z" />
    <glyph glyph-name="period" unicode="." horiz-adv-x="633" 
d="M6 -50h-6v425h406v-6l147 -147v-419h-400zM356 0v325h-306v-325h306z" />
    <glyph glyph-name="slash" unicode="/" horiz-adv-x="803" 
d="M723 1493l-317 -1840h-252l-147 147h-7l317 1846h260l-1 -6zM518 1596h-159l-300 -1746h158z" />
    <glyph glyph-name="zero" unicode="0" horiz-adv-x="1204" 
d="M957 1496v-6l147 -147v-1314l-244 -226h-707l-147 147h-6v1319l246 227h711zM907 1446h-641l-216 -199v-1247h642l215 199v1247zM604 1171v-897h-250v897h250z" />
    <glyph glyph-name="one" unicode="1" horiz-adv-x="881" 
d="M781 -197h-397l-147 147h-6v914h-24l-147 147h-6l-54 253l266 232h368v-6l147 -147v-1540zM282 1061l-1 -1061h303v1446h-302v-1l-227 -199l40 -185h187z" />
    <glyph glyph-name="two" unicode="2" horiz-adv-x="1154" 
d="M668 324h239v-6l147 -147v-368h-901l-147 147h-6v564l335 305h-167l-147 147h-6v300l230 230h662v-6l147 -147v-676zM857 274h-503v116l503 448v608h-592l-200 -200v-230h289v155h200v-221l-504 -458v-492h807v274z" />
    <glyph glyph-name="three" unicode="3" horiz-adv-x="1204" 
d="M1044 680l60 -50v-599l-228 -228h-723l-147 147h-6v565h395v-6l158 -162l1 75l-127 127h-6v249h-268l-147 147h-6v323l246 228h687v-6l147 -147v-639zM719 733l164 142v571h-618l-215 -199v-252h295v179h259v-300h-133v-275h133v-325h-259v191h-295v-465h657l200 200v533
h-188z" />
    <glyph glyph-name="four" unicode="4" horiz-adv-x="1273" 
d="M1193 90h-131v-287h-385l-147 147h-6v126h-173l-147 147h-5l-199 314l515 959h170l230 -230v-4l147 -147v-548l131 -131v-346zM865 0v287h131v252h-131v707l-200 200h-120l-487 -905l169 -268h347v-273h291zM574 1007v-482h-230z" />
    <glyph glyph-name="five" unicode="5" horiz-adv-x="1154" 
d="M116 490l-85 85h-6v921h842v-6l147 -147v-369h-444v-21h91l246 -230v-4l147 -147v-769h-657l-397 375v312h116zM373 1171h444v275h-742v-821h479v-349h-209v164h-295v-241l215 -199h592v702l-215 201h-269v268zM504 375v53h-53z" />
    <glyph glyph-name="six" unicode="6" horiz-adv-x="1153" 
d="M997 819l56 -56v-734l-244 -226h-656l-147 147h-6v1318l246 228h660v-6l147 -147v-524h-56zM856 1016v430h-591l-215 -199v-1247h591l215 199v667h-501v305h207v-155h294zM355 588h198v-314h-198v314z" />
    <glyph glyph-name="seven" unicode="7" horiz-adv-x="1169" 
d="M393 819h-240l-147 147h-6v530h701l388 -422l-452 -1271h-411l-147 147h-7zM577 1171l-434 -1171h311l432 1214l-207 232h-629v-430h266v155h261z" />
    <glyph glyph-name="eight" unicode="8" horiz-adv-x="1183" 
d="M67 661l-37 28h-6v577l230 230h658v-6l147 -147v-619l-43 -32l67 -56v-605l-228 -228h-702l-147 147h-6v666zM347 858v313h248v-313h-248zM347 598h248v-324h-248v324zM248 739l-198 -147v-592h636l200 200v539h-196l172 156v551h-588l-200 -200v-507h174z" />
    <glyph glyph-name="nine" unicode="9" horiz-adv-x="1157" 
d="M46 500l-40 40h-6v729l265 227h645v-6l147 -147v-1312l-228 -228h-676l-147 147h-6v550h46zM50 590h505v-316h-210v176h-295v-450h610l200 200v1246h-576l-234 -200v-656zM354 1171h201v-303h-201v303z" />
    <glyph glyph-name="colon" unicode=":" horiz-adv-x="633" 
d="M6 866h-6v425h406v-6l147 -147v-419h-400zM6 -50h-6v425h406v-6l147 -147v-419h-400zM356 0v325h-306v-325h306zM356 916v325h-306v-325h306z" />
    <glyph glyph-name="semicolon" unicode=";" horiz-adv-x="647" 
d="M61 -91l-41 41h-6v425h406v-6l147 -147v-386l-205 -313l-207 142l-139 139l-16 11zM567 719h-400l-147 147h-6v425h406v-6l147 -147v-419zM183 0l-113 -172l129 -89l171 261v325h-306v-325h119zM370 916v325h-306v-325h306z" />
    <glyph glyph-name="semicolon" unicode="&#x37e;" horiz-adv-x="647" 
d="M61 -91l-41 41h-6v425h406v-6l147 -147v-386l-205 -313l-207 142l-139 139l-16 11zM567 719h-400l-147 147h-6v425h406v-6l147 -147v-419zM183 0l-113 -172l129 -89l171 261v325h-306v-325h119zM370 916v325h-306v-325h306z" />
    <glyph glyph-name="less" unicode="&#x3c;" horiz-adv-x="1305" 
d="M574 512l504 -293v-5l147 -147v-349l-1072 637l-141 140l-12 8v255l1078 638v-9l147 -147v-349zM273 629l755 440v239l-978 -578v-199l978 -581v239z" />
    <glyph glyph-name="equal" unicode="=" horiz-adv-x="1285" 
d="M137 643l-131 131h-6v299h1058v-6l147 -147v-293h-137l137 -137v-293h-1052l-147 147h-6v299h137zM50 394h958v199h-958v-199zM50 824h958v199h-958v-199z" />
    <glyph glyph-name="greater" unicode="&#x3e;" horiz-adv-x="1305" 
d="M652 599l-499 292l-141 141l-12 7v357l1078 -638v-5l147 -147v-251l-1072 -637l-148 148l-5 -4v357zM805 629l-755 -440v-239l978 581v199l-978 578v-239z" />
    <glyph glyph-name="question" unicode="?" horiz-adv-x="1121" 
d="M375 819h-222l-147 147h-6v530h628l246 -228v-4l147 -147v-446l-244 -245v-207h-31l41 -41v-375h-387l-147 147h-6v381h51l-35 35h-6v331zM343 1180h184v-274l-220 -229v-261h273v179l244 245v407l-215 199h-559v-430h293v164zM590 0v281h-293v-281h293z" />
    <glyph glyph-name="at" unicode="@" horiz-adv-x="1620" 
d="M530 -146v-51h-377l-147 147h-6v1316l230 230h1143v-6l147 -147v-1312l-228 -228h-711zM333 0v1185h707v-143h-365l-197 -200v-842h645l200 200v1246h-1073l-200 -200v-1246h283zM1040 767v-493h-258v493h258z" />
    <glyph glyph-name="A" unicode="A" 
d="M1181 -197h-403l-147 147h-6l-15 123h-31l-33 -270h-393l-147 147h-6l235 1546h572l1 -7l146 -146zM977 0l-213 1446h-486l-221 -1446h297l33 270h250l33 -270h307zM602 545h-182l78 631h30z" />
    <glyph glyph-name="B" unicode="B" horiz-adv-x="1225" 
d="M986 615l139 -139v-673h-744l-381 377v1316h689l236 -220v-4l147 -147v-441zM733 743l142 114v398l-205 191h-620v-1246l200 -200h678v602zM353 274v328h271v-328h-271zM353 872v299h222v-299h-222z" />
    <glyph glyph-name="C" unicode="C" horiz-adv-x="1199" 
d="M551 850v-350h401v-6l147 -147v-316l-228 -228h-718l-147 147h-6v1319l246 227h706v-6l147 -147v-640h-398l-147 147h-3zM354 274v897h244v-271h304v546h-636l-216 -199v-1247h652l200 200v250h-304v-176h-244z" />
    <glyph glyph-name="D" unicode="D" horiz-adv-x="1202" 
d="M0 1496h693l409 -409v-1056l-231 -228h-718l-147 147h-6v1546zM50 0h652l203 200v1017l-233 229h-622v-1446zM353 274v897h248v-897h-248z" />
    <glyph glyph-name="E" unicode="E" horiz-adv-x="1059" 
d="M0 1496h802v-6l147 -147v-369h-402v-32h235v-6l147 -147v-364h-378v-101h261v-6l147 -147v-368h-806l-147 147h-6v1546zM50 0h712v274h-408v348h378v270h-382v279h402v275h-702v-1446z" />
    <glyph glyph-name="F" unicode="F" horiz-adv-x="1038" 
d="M908 425h-358v-622h-397l-147 147h-6v1316l230 230h561v-6l147 -147v-369h-388v-32h211l147 -153v-364zM711 622v270h-358v279h388v275h-491l-200 -200v-1246h303v622h358z" />
    <glyph glyph-name="G" unicode="G" horiz-adv-x="1211" 
d="M0 1496h914v-6l147 -147v-369h-510v-170h413v-6l147 -147v-848h-958l-147 147h-6v1546zM354 274v897h510v275h-814v-1446h864v754h-423v-257h123v-223h-260z" />
    <glyph glyph-name="H" unicode="H" horiz-adv-x="1213" 
d="M403 1490l147 -147v-441h13v594h403v-6l147 -147v-1540h-397l-147 147h-6v431h-13v-578h-397l-147 147h-6v1546h403v-6zM353 1446h-303v-1446h303v578h260v-578h303v1446h-303v-594h-260v594z" />
    <glyph glyph-name="I" unicode="I" horiz-adv-x="850" 
d="M100 324v704l-94 94h-6v374h603v-6l147 -147v-368h-100v-704l100 -100v-368h-597l-147 147h-6v374h100zM453 274v898h100v274h-503v-274h100v-898h-100v-274h503v274h-100z" />
    <glyph glyph-name="J" unicode="J" horiz-adv-x="1121" 
d="M471 426v519h-177l-147 147h-6v404h733v-6l147 -147v-1314l-242 -226h-626l-147 147h-6v550h403v-6zM50 0h561l213 199v1247h-633v-304h330v-868h-168v176h-303v-450z" />
    <glyph glyph-name="K" unicode="K" horiz-adv-x="1280" 
d="M969 851h42v-6l147 -147v-895h-397l-147 147h-6v381h-58v-528h-397l-147 147h-6v1546h403v-6l147 -147v-16l74 169h411l-3 -6l148 -147zM682 801l277 645h-302l-284 -645h-20v645h-303v-1446h303v528h305v-528h303v801h-279z" />
    <glyph glyph-name="L" unicode="L" horiz-adv-x="1074" 
d="M550 324h277v-6l147 -147v-368h-821l-147 147h-6v1546h403v-6l147 -147v-1019zM777 0v274h-424v1172h-303v-1446h727z" />
    <glyph glyph-name="M" unicode="M" horiz-adv-x="1447" 
d="M652 1102l110 394h438v-6l147 -147v-1540h-374l-113 113l-28 -113h-164l-141 141v-141h-374l-147 147h-6v1546h438l2 -7l146 -146zM600 726l-200 720h-350v-1446h280v900l225 -900h90l225 900v-900h280v1446h-350z" />
    <glyph glyph-name="N" unicode="N" horiz-adv-x="1227" 
d="M387 1488l146 -145l61 -173v326h386v-6l147 -147v-1540h-380l-147 147h-5l-64 179v-326h-378l-147 147h-6v1546h385zM350 1446h-300v-1446h284v830l296 -830h300v1446h-286v-830z" />
    <glyph glyph-name="O" unicode="O" horiz-adv-x="1220" 
d="M0 1496h973v-6l147 -147v-1540h-967l-147 147h-6v1546zM50 0h873v1446h-873v-1446zM354 1171h266v-897h-266v897z" />
    <glyph glyph-name="P" unicode="P" horiz-adv-x="1186" 
d="M6 -50h-6v1316l246 230h671l169 -153v-1173h-536v-367h-397zM353 367h536v1079h-620l-219 -204v-1242h303v367zM353 644v527h233v-527h-233z" />
    <glyph glyph-name="Q" unicode="Q" horiz-adv-x="1224" 
d="M977 1496v-6l147 -147v-1790h-84l-300 250h-587l-147 147h-6v1316l230 230h747zM927 -250v1696h-677l-200 -200v-1246h557l300 -250h20zM624 1171v-897h-270v897h270z" />
    <glyph glyph-name="R" unicode="R" horiz-adv-x="1234" 
d="M550 31v-228h-397l-147 147h-6v1316l246 230h672l168 -153v-1013h-144l192 -527h-404l-147 147h-5zM917 0l-192 527h164v919h-619l-220 -204v-1242h303v523h80l180 -523h304zM353 794v377h233v-377h-233z" />
    <glyph glyph-name="S" unicode="S" horiz-adv-x="1142" 
d="M560 923v-28l335 -251v-4l147 -147v-690h-889l-147 147h-6v550h403v-6l88 -88v39l-328 248l-137 136l-16 13v654h876v-6l147 -147v-524h-369zM845 619l-482 362v189h198v-154h275v430h-776v-579l481 -363v-230h-188v176h-303v-450h795v619z" />
    <glyph glyph-name="T" unicode="T" horiz-adv-x="1208" 
d="M961 1490l147 -147v-369h-273v-1171h-399l-147 147h-6v1024h-130l-147 147h-6v375h961v-6zM911 1446h-861v-275h283v-1171h305v1171h273v275z" />
    <glyph glyph-name="U" unicode="U" horiz-adv-x="1202" 
d="M551 1341v155h404v-6l147 -147v-1540h-949l-147 147h-6v1546h403v-6zM905 1446h-304v-1172h-248v1172h-303v-1446h855v1446z" />
    <glyph glyph-name="V" unicode="V" horiz-adv-x="1209" 
d="M0 1496h418v-7l135 -136l16 143h413l-1 -6l148 -147l-204 -1540h-563l-147 147h-6zM493 335l-120 1111h-316l196 -1446h480l192 1446h-311z" />
    <glyph glyph-name="W" unicode="W" horiz-adv-x="1714" 
d="M555 1265l42 231h294l1 -8l146 -145l16 -92l37 245h397l-1 -6l147 -147l-265 -1540h-354l-147 147h-6l-32 176l-57 -323h-354l-147 147h-6l-266 1546h397l1 -7l146 -146zM744 896l160 -896h276l249 1446h-295l-130 -862l-155 862h-210l-155 -862l-130 862h-295l249 -1446
h276z" />
    <glyph glyph-name="X" unicode="X" horiz-adv-x="1354" 
d="M653 14l-73 -211h-426l-147 147h-7l281 809l-233 737h416l2 -7l136 -137l44 144h417l-2 -6l148 -147l-236 -735l281 -805h-426l-147 147h-5zM554 449l157 -449h327l-264 759l220 687h-311l-129 -427l-127 427h-311l218 -687l-264 -759h327z" />
    <glyph glyph-name="Y" unicode="Y" horiz-adv-x="1286" 
d="M577 1313l62 183h421l-2 -5l148 -148l-520 -1540h-416l-147 147h-7l203 603l-319 943h420l2 -8l146 -145zM523 998l-140 448h-313l303 -893l-187 -553h316l488 1446h-315z" />
    <glyph glyph-name="Z" unicode="Z" horiz-adv-x="1140" 
d="M700 324h174v-6l147 -147v-368h-868l-147 147h-6v302l339 722h-156l-147 147h-6v375h753l3 -8l145 -145l109 -278zM824 0v274h-417l432 943l-90 229h-669v-275h407l-437 -931v-240h774z" />
    <glyph glyph-name="bracketleft" unicode="[" horiz-adv-x="732" 
d="M6 -200h-6v1846h485v-6l147 -147v-368h-150v-951h3v-6l147 -147v-368h-479zM285 1322h150v274h-385v-1746h385v274h-150v1198z" />
    <glyph glyph-name="backslash" unicode="\" horiz-adv-x="823" 
d="M0 1646h260l1 -7l146 -146l316 -1840h-252l-147 147h-6zM59 1596l301 -1746h158l-300 1746h-159z" />
    <glyph glyph-name="bracketright" unicode="]" horiz-adv-x="732" 
d="M0 174h150v954l-144 144h-6v374h485v-6l147 -147v-1840h-479l-147 147h-6v374zM200 124h-150v-274h385v1746h-385v-274h150v-1198z" />
    <glyph glyph-name="asciicircum" unicode="^" horiz-adv-x="1212" 
d="M551 -197h-398l-147 147h-6v1288l262 258h703v-6l147 -147v-1540h-397l-147 147h-6v328h-11v-475zM354 475h258v-475h303v1446h-632l-233 -229v-1217h304v475zM354 750v421h258v-421h-258z" />
    <glyph glyph-name="underscore" unicode="_" horiz-adv-x="1311" 
d="M0 -85h1084v-6l147 -147v-298h-1078l-147 147h-6v304zM50 -339h984v204h-984v-204z" />
    <glyph glyph-name="grave" unicode="`" horiz-adv-x="781" 
d="M0 1884h379l4 -10l144 -143l174 -378h-282l-147 147h-4zM96 1834l198 -284h183l-131 284h-250z" />
    <glyph glyph-name="a" unicode="a" 
d="M1181 -197h-403l-147 147h-6l-15 123h-31l-33 -270h-393l-147 147h-6l235 1546h572l1 -7l146 -146zM977 0l-213 1446h-486l-221 -1446h297l33 270h250l33 -270h307zM420 545l78 631h30l74 -631h-182z" />
    <glyph glyph-name="b" unicode="b" horiz-adv-x="1225" 
d="M986 615l139 -139v-673h-972l-147 147h-6v1546h689l236 -220v-4l147 -147v-441zM733 743l142 114v398l-205 191h-620v-1446h878v602zM353 274v328h271v-328h-271zM353 872v299h222v-299h-222z" />
    <glyph glyph-name="c" unicode="c" horiz-adv-x="1199" 
d="M554 850h-3v-350h401v-6l147 -147v-544h-946l-147 147h-6v1319l246 227h706v-6l147 -147v-640h-398zM354 274v897h244v-271h304v546h-636l-216 -199v-1247h852v450h-304v-176h-244z" />
    <glyph glyph-name="d" unicode="d" horiz-adv-x="1202" 
d="M1102 -197h-949l-147 147h-6v1546h693l262 -258v-4l147 -147v-1284zM905 0v1217l-233 229h-622v-1446h855zM353 274v897h248v-897h-248z" />
    <glyph glyph-name="e" unicode="e" horiz-adv-x="1059" 
d="M959 -197h-806l-147 147h-6v1319l246 227h556v-6l147 -147v-369h-402v-32h235v-6l147 -147v-364h-378v-101h261v-6l147 -147v-368zM350 892v279h402v275h-486l-216 -199v-1247h712v274h-408v348h378v270h-382z" />
    <glyph glyph-name="f" unicode="f" horiz-adv-x="1038" 
d="M0 1496h791v-6l147 -147v-369h-388v-32h211v-6l147 -147v-364h-358v-622h-397l-147 147h-6v1546zM50 0h303v622h358v270h-358v279h388v275h-691v-1446z" />
    <glyph glyph-name="g" unicode="g" horiz-adv-x="1211" 
d="M6 -50h-6v1319l246 227h668v-6l147 -147v-369h-510v-170h413v-6l147 -147v-848h-958zM614 274h-260v897h510v275h-598l-216 -199v-1247h864v754h-423v-257h123v-223z" />
    <glyph glyph-name="h" unicode="h" horiz-adv-x="1213" 
d="M403 1490l147 -147v-441h13v594h403v-6l147 -147v-1540h-397l-147 147h-6v431h-13v-578h-397l-147 147h-6v1546h403v-6zM353 1446h-303v-1446h303v578h260v-578h303v1446h-303v-594h-260v594z" />
    <glyph glyph-name="i" unicode="i" horiz-adv-x="650" 
d="M550 -197h-397l-147 147h-6v1546h403v-6l147 -147v-1540zM50 1002v-1002h303v1002h-303zM50 1446v-356h303v356h-303z" />
    <glyph glyph-name="j" unicode="j" horiz-adv-x="1121" 
d="M471 426v1070h403v-6l147 -147v-1314l-242 -226h-626l-147 147h-6v550h403v-6zM50 0h561l213 199v821h-303v-746h-168v176h-303v-450zM521 1446v-346h303v346h-303z" />
    <glyph glyph-name="k" unicode="k" horiz-adv-x="1280" 
d="M1180 1343l-268 -624l99 -98v-4l147 -147v-667h-397l-147 147h-6v381h-58v-528h-397l-147 147h-6v1546h403v-6l147 -147v-16l74 169h411l-3 -6zM959 1446h-302l-283 -645h-21v645h-303v-1446h303v528h305v-528h303v601l-200 200h-79z" />
    <glyph glyph-name="l" unicode="l" horiz-adv-x="1074" 
d="M550 324h277v-6l147 -147v-368h-821l-147 147h-6v1546h403v-6l147 -147v-1019zM777 0v274h-424v1172h-303v-1446h727z" />
    <glyph glyph-name="m" unicode="m" horiz-adv-x="1713" 
d="M730 1366v130h506l230 -230v-4l147 -147v-1312h-380l-147 147h-6v-147h-383l-147 147h-14v-147h-383l-147 147h-6v1546h600zM780 1246l-200 200h-530v-1446h284v1180h260v-1180h286v1180h250v-1180h286v1246l-200 200h-436v-200z" />
    <glyph glyph-name="n" unicode="n" horiz-adv-x="1217" 
d="M531 -197h-378l-147 147h-6v1546h740l230 -230v-4l147 -147v-1312h-380l-147 147h-6v1033h-53v-1180zM334 1180h300v-1180h286v1246l-200 200h-670v-1446h284v1180z" />
    <glyph glyph-name="o" unicode="o" horiz-adv-x="1224" 
d="M1124 -197h-727l-397 374v1319h731l246 -228v-4l147 -147v-1314zM50 1446v-1247l216 -199h661v1247l-215 199h-662zM624 1171v-897h-270v897h270z" />
    <glyph glyph-name="p" unicode="p" horiz-adv-x="1186" 
d="M550 -197h-397l-147 147h-6v1546h683l256 -242v-4l147 -147v-863h-536v-437zM353 437h536v796l-225 213h-614v-1446h303v437zM353 714v457h233v-457h-233z" />
    <glyph glyph-name="q" unicode="q" horiz-adv-x="1224" 
d="M1124 -447h-84l-289 255v-5h-360l-391 375v1318h732l245 -225l147 -151v-1567zM927 -250v1499l-215 197h-662v-1247l209 -199h365l283 -250h20zM624 1171v-897h-270v897h270z" />
    <glyph glyph-name="r" unicode="r" horiz-adv-x="1234" 
d="M550 28v-225h-397l-147 147h-6v1546h683l256 -242v-4l147 -147v-773h-144l192 -527h-404l-147 147h-5zM917 0l-192 527h164v706l-225 213h-614v-1446h303v526h71l189 -526h304zM586 1171v-367h-233v367h233z" />
    <glyph glyph-name="s" unicode="s" horiz-adv-x="1142" 
d="M560 923v-28l335 -251v-4l147 -147v-690h-661l-381 377v320h403v-6l88 -88v39l-328 248l-137 136l-16 13v654h646l377 -381v-296h-369zM353 274v176h-303v-250l200 -200h595v619l-482 362v189h198v-154h275v230l-200 200h-576v-579l481 -363v-230h-188z" />
    <glyph glyph-name="t" unicode="t" horiz-adv-x="1208" 
d="M835 974v-1171h-399l-147 147h-6v1024h-130l-147 147h-6v375h961v-6l147 -147v-369h-273zM911 1446h-861v-275h283v-1171h305v1171h273v275z" />
    <glyph glyph-name="u" unicode="u" horiz-adv-x="1202" 
d="M550 1343l1 153h404v-6l147 -147v-1540h-707l-395 375v1318h403v-6zM905 1446h-304v-1172h-248v1172h-303v-1247l213 -199h642v1446z" />
    <glyph glyph-name="v" unicode="v" horiz-adv-x="1205" 
d="M0 1496h420v-7l129 -130l15 137h414l-1 -6l148 -147l-212 -1540h-542l-147 147h-6zM492 330l-118 1116h-316l204 -1446h460l199 1446h-311z" />
    <glyph glyph-name="w" unicode="w" horiz-adv-x="1713" 
d="M883 -63v-134h-502l-381 377v1316h386v-6l150 -150v156h386v-6l159 -166l1 172h384v-6l147 -147v-1540h-596zM686 200l200 -200h530v1446h-284v-1180h-260v1180h-286v-1180h-250v1180h-286v-1246l200 -200h436v200z" />
    <glyph glyph-name="x" unicode="x" horiz-adv-x="1340" 
d="M646 14l-73 -211h-419l-147 147h-7l281 809l-233 737h409l2 -7l136 -137l44 144h410l-2 -6l148 -147l-236 -735l281 -805h-419l-147 147h-5zM547 459l157 -459h320l-264 759l220 687h-304l-129 -427l-127 427h-304l218 -687l-264 -759h320z" />
    <glyph glyph-name="y" unicode="y" horiz-adv-x="1300" 
d="M587 1307l58 189h429l-2 -5l148 -148l-333 -889v-651h-400l-147 147h-6v653l-334 893h429l2 -7l146 -146zM537 970l-145 476h-320l312 -834v-612h306v612l312 834h-320z" />
    <glyph glyph-name="z" unicode="z" horiz-adv-x="1140" 
d="M347 974h-164l-147 147h-6v375h753l3 -8l145 -145l109 -278l-340 -741h174v-6l147 -147v-368h-868l-147 147h-6v301zM497 1171l-447 -931v-240h774v274h-417l432 943l-90 229h-669v-275h417z" />
    <glyph glyph-name="braceleft" unicode="{" horiz-adv-x="946" 
d="M521 571l32 -31q31 -31 50 -68t28.5 -78t12.5 -84.5t3 -87.5v-121h72v-6l147 -147v-303h-102q-67 0 -124 2t-104.5 9.5t-85.5 23t-65 42.5l-125 124q-51 35 -76.5 102t-25.5 184v259q0 14 -1 27h-4l-147 147h-6v310h65q29 0 47.5 13.5t28.5 39t13.5 63t3.5 85.5v232
q0 82 13 139.5t39 95.5t64 59t89 31t113.5 12.5t137.5 2.5h105v-6l147 -147v-303h-83q-46 0 -73 -2.5t-41 -14.5t-18 -36.5t-4 -68.5v-152q0 -48 -3.5 -94t-14.5 -89t-33.5 -81.5t-59.5 -70.5zM247 720q69 15 109 49q32 27 50.5 61t28.5 72.5t12.5 80.5t2.5 85v152
q0 66 6 100.5t28.5 49.5t66 17t118.5 2v209q-75 0 -138.5 -0.5t-115 -8t-90 -24t-65 -49t-39.5 -83t-13 -125.5v-232q0 -60 -5.5 -106.5t-21 -79t-43.5 -49t-73 -16.5h-15v-210h15q45 0 73 -16.5t43.5 -49t21 -79t5.5 -106.5v-232q0 -75 13 -125.5t39.5 -83t65 -49t90 -24
t115 -8t138.5 -0.5v209q-75 0 -118.5 2t-66 17t-28.5 49.5t-6 100.5v152q0 43 -2.5 85t-12.5 80.5t-28.5 72t-50.5 60.5q-41 35 -109 50z" />
    <glyph glyph-name="bar" unicode="|" horiz-adv-x="533" 
d="M0 1646h306v-6l147 -147v-1840h-300l-147 147h-6v1846zM50 -150h206v1746h-206v-1746z" />
    <glyph glyph-name="braceright" unicode="}" horiz-adv-x="946" 
d="M345 719q-5 3 -8 6t-7 6q-38 32 -60 71t-33 82t-14.5 89.5t-3.5 94.5v124h-66l-147 147h-6v309h105q75 0 137.5 -2.5t113.5 -13t89 -31.5t64 -59l125 -124q37 -37 55.5 -99t18.5 -161v-232q0 -14 -0.5 -27t0.5 -24h11v-6l147 -147v-304h-62q-30 0 -49 -13.5t-29.5 -39.5
t-14 -64t-3.5 -87v-232q0 -82 -13 -138.5t-38.5 -94t-63.5 -58.5t-88.5 -31t-113 -12.5t-136.5 -2.5h-102l-147 147h-6v309h86q45 0 71.5 2.5t40 14t17.5 35.5t4 67v152q0 47 3.5 93.5t15 90t33.5 82t60 70.5q3 3 6.5 5.5t7.5 5.5zM472 720q-68 -15 -109 -50
q-32 -27 -50.5 -60.5t-28.5 -72t-12.5 -80.5t-2.5 -85v-152q0 -66 -6 -100.5t-28.5 -49.5t-66 -17t-118.5 -2v-209q75 0 138.5 0.5t115 8t90 24t65 49t39.5 83t13 125.5v232q0 60 5.5 106.5t21 79t43.5 49t73 16.5h15v210h-15q-45 0 -73 16.5t-43.5 49t-21 79t-5.5 106.5
v232q0 75 -13 125.5t-39.5 83t-65 49t-90 24t-115 8t-138.5 0.5v-209q75 0 118.5 -2t66 -17t28.5 -49.5t6 -100.5v-152q0 -43 2.5 -85t12.5 -80.5t28.5 -72.5t50.5 -61q40 -34 109 -49z" />
    <glyph glyph-name="asciitilde" unicode="~" horiz-adv-x="1202" 
d="M550 -197h-397l-147 147h-6v1546h693l262 -258v-4l147 -147v-1284h-398l-147 147h-7v-147zM353 0v475h248v-475h304v1217l-233 229h-622v-1446h303zM353 750v421h248v-421h-248z" />
    <glyph glyph-name="Zcaron" horiz-adv-x="1120" 
d="M339 974h-156l-147 147h-6v375h281l-295 388h319l13 -18l102 -102l93 120h319l-4 -5l148 -148l-198 -265l123 -123l109 -278l-340 -741h174v-6l147 -147v-368h-868l-147 147h-6v302zM487 1171l-437 -931v-240h774v274h-417l432 943l-90 229h-669v-275h407zM762 1834h-195
l-128 -167l-128 167h-195l212 -284h222z" />
    <glyph glyph-name="Zcaron" unicode="&#x17d;" horiz-adv-x="1120" 
d="M339 974h-156l-147 147h-6v375h281l-295 388h319l13 -18l102 -102l93 120h319l-4 -5l148 -148l-198 -265l123 -123l109 -278l-340 -741h174v-6l147 -147v-368h-868l-147 147h-6v302zM487 1171l-437 -931v-240h774v274h-417l432 943l-90 229h-669v-275h407zM762 1834h-195
l-128 -167l-128 167h-195l212 -284h222z" />
    <glyph glyph-name="zcaron" horiz-adv-x="1120" 
d="M450 1764l93 120h319l-4 -5l148 -148l-198 -265l123 -123l109 -278l-340 -741h174v-6l147 -147v-368h-868l-147 147h-6v301l347 723h-164l-147 147h-6v375h281l-4 4h-4l-287 384h319l13 -18zM497 1171l-447 -931v-240h774v274h-417l432 943l-90 229h-669v-275h417z
M439 1667l-128 167h-195l212 -284h222l212 284h-195z" />
    <glyph glyph-name="zcaron" unicode="&#x17e;" horiz-adv-x="1120" 
d="M450 1764l93 120h319l-4 -5l148 -148l-198 -265l123 -123l109 -278l-340 -741h174v-6l147 -147v-368h-868l-147 147h-6v301l347 723h-164l-147 147h-6v375h281l-4 4h-4l-287 384h319l13 -18zM497 1171l-447 -931v-240h774v274h-417l432 943l-90 229h-669v-275h417z
M439 1667l-128 167h-195l212 -284h222l212 284h-195z" />
    <glyph glyph-name="exclamdown" unicode="&#xa1;" horiz-adv-x="628" 
d="M438 968l41 -41l69 -861v-263h-395l-147 147h-6v266l68 851l-48 48h-6v381h373v-6l147 -147v-375h-96zM351 0v212l-66 818h-169l-66 -818v-212h301zM64 1446v-281h273v281h-273z" />
    <glyph glyph-name="cent" unicode="&#xa2;" horiz-adv-x="1001" 
d="M490 793v-157h284v-6l147 -147v-443h-271v-150h-264l-149 150h-84l-147 147h-6v985l188 174h92v150h270v-6l144 -144h80v-6l147 -147v-494h-337zM293 457v618h188v-179h243v400h-224v150h-170v-150h-122l-158 -146v-913h233v-150h170v150h271v349h-243v-129h-188z" />
    <glyph glyph-name="sterling" unicode="&#xa3;" horiz-adv-x="1282" 
d="M852 819l61 -61l-38 -168h180v-6l147 -147v-634h-1049l-147 147h-6v354h113v176l-107 107h-6v324h113v355l231 230h687l147 -181v-496h-326zM704 861h-246v310h234v-155h289v430h-617l-201 -200v-385h-113v-224h113v-383h-113v-254h955v540h-278v-266h-269v363h196z
M655 324h22v116h-22v-116zM655 911h48l-48 48v-48z" />
    <glyph glyph-name="currency" unicode="&#xa4;" horiz-adv-x="1264" 
d="M794 974l147 -147l-158 -503h254v-6l147 -147v-368h-926l-147 147h-6v371l-99 99h-6v560h105v289l246 227h676v-6l147 -147v-369h-380zM729 930h-270v241h518v275h-606l-216 -199v-317h-105v-180h105v-100h-105v-180h105v-470h832v274h-528v196h130l50 180h-180v100h220z
" />
    <glyph glyph-name="yen" unicode="&#xa5;" horiz-adv-x="1288" 
d="M583 1329l58 167h422l-2 -6l147 -147l-282 -726l128 -128v-471h-194v-215h-400l-147 147h-6v68h-19l-147 147h-6v477h159l-294 854h431l2 -7zM526 1009l-132 437h-325l288 -834v-20h-172v-142h172v-94h-172v-141h172v-215h306v215h194v141h-194v94h194v142h-200l332 854
h-313z" />
    <glyph glyph-name="brokenbar" unicode="&#xa6;" horiz-adv-x="533" 
d="M0 458h306v-6l147 -147v-852h-300l-147 147h-6v858zM0 1482h306v-6l147 -147v-852h-300l-147 147h-6v858zM50 674h206v758h-206v-758zM50 -350h206v758h-206v-758z" />
    <glyph glyph-name="section" unicode="&#xa7;" horiz-adv-x="2052" 
d="M491 406v39l-328 248l-137 136l-16 13v654h646l230 -230v-4l34 -34v268h646l230 -230v-4l147 -147v-296h-369l-104 104v-28l335 -251v-4l147 -147v-690h-661l-147 147h-4l-98 98v-245h-661l-147 147h-4l-230 230v320h403v-6zM353 274v176h-303v-250l200 -200h595v619
l-482 362v189h198v-154h275v230l-200 200h-576v-579l481 -363v-230h-188zM1263 274v176h-303v-250l200 -200h595v619l-482 362v189h198v-154h275v230l-200 200h-576v-579l481 -363v-230h-188zM560 923v-28l335 -251v-4l140 -140h278v-6l88 -88v39l-328 248l-126 126h-283z
" />
    <glyph glyph-name="dieresis" unicode="&#xa8;" horiz-adv-x="917" 
d="M467 1409v-56h-314l-147 147h-6v338h320v-6l50 -50v56h320v-6l147 -147v-332h-314zM640 1550v238h-220v-238h220zM270 1550v238h-220v-238h220z" />
    <glyph glyph-name="copyright" unicode="&#xa9;" horiz-adv-x="1813" 
d="M791 1529q163 0 306.5 -59.5t258.5 -174.5q12 -12 23 -24.5t22 -25.5l103 -102q112 -112 170.5 -255.5t58.5 -304.5q0 -163 -58 -302.5t-171 -251.5q-118 -115 -263 -175.5t-300 -60.5q-157 0 -298.5 60t-256.5 175l-101 100q-13 11 -26 23t-25 25q-115 114 -174.5 256.5
t-59.5 300.5q0 160 59.5 303.5t174.5 260.5q112 114 254 173t303 59zM791 1479q-152 0 -284 -55.5t-238 -161.5q-108 -109 -163.5 -244t-55.5 -285q0 -148 55.5 -282t163.5 -240q109 -109 241.5 -165t280.5 -56q146 0 282 57t248 166q106 105 160.5 236t54.5 284
q0 152 -54.5 286.5t-160.5 240.5q-108 108 -242.5 163.5t-287.5 55.5zM793 1356q128 0 239 -46t201 -136q88 -88 134.5 -200t46.5 -239q0 -129 -45.5 -239t-133.5 -197q-91 -91 -204 -137.5t-238 -46.5t-237.5 47t-200.5 135q-90 90 -136.5 201t-46.5 237q0 125 46.5 237.5
t136.5 203.5q88 88 198.5 134t239.5 46zM705 451v571h155v-172h193v347h-404l-138 -127v-793h542v286h-193v-112h-155zM902 714v-101h201v-6l147 -147v-70q56 72 85 158.5t29 186.5q0 91 -26 174t-77 155q-3 2 -6 3.5t-5 3.5v-418h-287zM461 898q-46 -70 -69 -149t-23 -164
q0 -173 92 -312v625z" />
    <glyph glyph-name="ordfeminine" unicode="&#xaa;" horiz-adv-x="906" 
d="M445 497l-12 -94h-280l-147 147h-6l143 946h398l1 -7l146 -146l138 -940h-287zM621 600l-124 846h-311l-129 -846h184l20 158h151l19 -158h190zM282 924l43 344h23l44 -344h-110z" />
    <glyph glyph-name="guillemotleft" unicode="&#xab;" horiz-adv-x="1189" 
d="M513 424l165 -269l-207 -173l-148 148l-2 -2l-321 400v258l321 395l212 -177l-2 -3l41 -40l179 220l212 -177l-2 -3l148 -147l-216 -347l215 -352l-207 -173l-148 148l-2 -2zM328 1110l-278 -343v-221l278 -347l139 116l-209 342l209 337zM758 1110l-278 -343v-221
l278 -347l139 116l-209 342l209 337z" />
    <glyph glyph-name="logicalnot" unicode="&#xac;" horiz-adv-x="1286" 
d="M0 860h1059v-6l147 -147v-536h-293l-147 147h-6v95h-607l-147 147h-6v300zM50 610h760v-242h199v442h-959v-200z" />
    <glyph glyph-name="registered" unicode="&#xae;" horiz-adv-x="1813" 
d="M482 924q-55 -75 -84 -161.5t-29 -177.5q0 -88 23.5 -168t71.5 -149l18 -12v668zM1058 1148l61 -57v-4l147 -147v-513h-85l29 -82q73 78 113.5 176t40.5 202q0 195 -105 341q-46 32 -96 52.5t-105 31.5zM791 1529q165 0 309.5 -61t259.5 -178q11 -11 21 -22.5t21 -23.5
l106 -106q110 -112 167.5 -253.5t57.5 -301.5q0 -163 -59 -306.5t-174 -253.5q-114 -112 -258 -171t-301 -59q-158 0 -300.5 60.5t-257.5 175.5l-99 98l-56 53q-112 113 -170 254.5t-58 298.5q0 218 114 413q106 180 287 282q178 101 390 101zM723 801v229h152v-229h-152z
M964 624h105v446l-144 136h-393v-920h191v338l48 -1l121 -337h195zM793 1356q130 0 241.5 -46.5t202.5 -140.5q177 -180 177 -446q0 -121 -47.5 -232t-135.5 -196q-94 -88 -206.5 -135t-233.5 -47q-124 0 -237 48.5t-203 139.5q-88 88 -133.5 198.5t-45.5 235.5
q0 124 49 239t140 206q176 176 432 176zM791 1479q-199 0 -366 -95t-267 -264q-108 -185 -108 -387q0 -147 54 -279.5t159 -238.5q108 -109 243 -167t285 -58q147 0 282.5 55.5t243.5 161.5q108 103 163.5 238t55.5 288q0 151 -54 284t-157 238q-108 109 -243.5 166.5
t-290.5 57.5z" />
    <glyph glyph-name="macron" unicode="&#xaf;" horiz-adv-x="889" 
d="M809 1353h-656l-147 147h-6v250h662v-6l147 -147v-244zM612 1550v150h-562v-150h562z" />
    <glyph glyph-name="macron" unicode="&#x2c9;" horiz-adv-x="889" 
d="M809 1353h-656l-147 147h-6v250h662v-6l147 -147v-244zM612 1550v150h-562v-150h562z" />
    <glyph glyph-name="degree" unicode="&#xb0;" horiz-adv-x="933" 
d="M353 1524q147 0 255 -110h-1q6 -7 12 -13t11 -13l121 -121h-1q103 -103 103 -248q0 -144 -103 -247t-249 -103t-248 102l-118 117q-9 7 -17.5 15t-16.5 16q-101 102 -101 250t103 251q104 104 250 104zM353 1474q-126 0 -215 -89q-88 -88 -88 -216q0 -127 87 -215
q88 -88 214 -88q127 0 216 89t89 214q0 126 -89 215q-89 90 -214 90zM353 1345q72 0 123 -51t51 -123t-51 -124t-123 -52q-74 0 -125 51t-51 125q0 72 51 123q52 51 125 51zM474 1144q-37 -8 -64 -34q-26 -26 -34 -63q35 6 64 35q27 28 34 62z" />
    <glyph glyph-name="plusminus" unicode="&#xb1;" horiz-adv-x="1287" 
d="M461 251l-75 75h-6v263h-227l-147 147h-6v300h380v410h300v-6l147 -147v-257h233v-6l147 -147v-294h-380v-338h233v-6l147 -147v-295h-1054l-147 147h-6v301h461zM430 986h-380v-200h380v-410h200v410h380v200h-380v410h-200v-410zM1010 0v201h-960v-201h960z" />
    <glyph glyph-name="twosuperior" unicode="&#xb2;" horiz-adv-x="1486" 
d="M6 409h-6v844l240 243h1019v-6l147 -147v-349h-106v-1641h-344l-106 106v-106h-394l-147 147h-6v762h-150zM653 714h-300v477h856v255h-949l-210 -213v-774h303v-909h300v1164zM853 -450h250v1568h-250v-1568zM703 758l100 -100v336h-253v-230h153v-6z" />
    <glyph glyph-name="threesuperior" unicode="&#xb3;" horiz-adv-x="1486" 
d="M6 409h-6v844l240 243h1019v-6l147 -147v-349h-106v-1641h-344l-106 106v-106h-394l-147 147h-6v762h-150zM653 714h-300v477h856v255h-949l-210 -213v-774h303v-909h300v1164zM853 -450h250v1568h-250v-1568zM703 758l100 -100v336h-253v-230h153v-6z" />
    <glyph glyph-name="acute" unicode="&#xb4;" horiz-adv-x="781" 
d="M701 1731l-264 -378h-282l-147 147h-8l177 384h379l-4 -5zM460 1834h-250l-131 -284h183z" />
    <glyph glyph-name="uni00B5" unicode="&#xb5;" horiz-adv-x="1182" 
d="M551 1343v153h404v-6l147 -147v-1323l-229 -217h-323v-290h-397l-147 147h-6v1836h403zM353 1446h-303v-1736h303v290h352l200 190v1256h-304v-1172h-248v1172z" />
    <glyph glyph-name="paragraph" unicode="&#xb6;" horiz-adv-x="1486" 
d="M6 409h-6v844l240 243h1019v-6l147 -147v-349h-106v-1641h-344l-106 106v-106h-394l-147 147h-6v762h-150zM653 714h-300v477h856v255h-949l-210 -213v-774h303v-909h300v1164zM853 -450h250v1568h-250v-1568zM703 758l100 -100v336h-253v-230h153v-6z" />
    <glyph glyph-name="periodcentered" unicode="&#xb7;" horiz-adv-x="602" 
d="M522 399h-369l-147 147h-6v395h375v-6l147 -147v-389zM325 596v295h-275v-295h275z" />
    <glyph glyph-name="periodcentered" unicode="&#x2219;" horiz-adv-x="602" 
d="M522 399h-369l-147 147h-6v395h375v-6l147 -147v-389zM325 596v295h-275v-295h275z" />
    <glyph glyph-name="cedilla" unicode="&#xb8;" horiz-adv-x="708" 
d="M103 -290l-42 42h-6v298h206v-6l86 -86h134v-6l147 -147v-314l-122 -134h-353l-147 147h-6v206h103zM105 0v-198h176v-142h-231v-106h285l96 106v248h-220v92h-106z" />
    <glyph glyph-name="onesuperior" unicode="&#xb9;" horiz-adv-x="1486" 
d="M6 409h-6v844l240 243h1019v-6l147 -147v-349h-106v-1641h-344l-106 106v-106h-394l-147 147h-6v762h-150zM653 714h-300v477h856v255h-949l-210 -213v-774h303v-909h300v1164zM853 -450h250v1568h-250v-1568zM703 758l100 -100v336h-253v-230h153v-6z" />
    <glyph glyph-name="ordmasculine" unicode="&#xba;" horiz-adv-x="1486" 
d="M6 409h-6v844l240 243h1019v-6l147 -147v-349h-106v-1641h-344l-106 106v-106h-394l-147 147h-6v762h-150zM653 714h-300v477h856v255h-949l-210 -213v-774h303v-909h300v1164zM853 -450h250v1568h-250v-1568zM703 758l100 -100v336h-253v-230h153v-6z" />
    <glyph glyph-name="guillemotright" unicode="&#xbb;" horiz-adv-x="1190" 
d="M589 746l-159 258l212 177l17 -22l133 -132l318 -392v-256l-318 -397l-207 173l-47 47l-176 -220l-207 173l-129 129l-25 21l214 351l-215 348l212 177l17 -22l133 -132zM205 1110l-139 -116l209 -337l-209 -342l139 -116l278 347v221zM635 1110l-139 -116l209 -337
l-209 -342l139 -116l278 347v221z" />
    <glyph glyph-name="onequarter" unicode="&#xbc;" horiz-adv-x="1486" 
d="M6 409h-6v844l240 243h1019v-6l147 -147v-349h-106v-1641h-344l-106 106v-106h-394l-147 147h-6v762h-150zM653 714h-300v477h856v255h-949l-210 -213v-774h303v-909h300v1164zM853 -450h250v1568h-250v-1568zM703 758l100 -100v336h-253v-230h153v-6z" />
    <glyph glyph-name="onehalf" unicode="&#xbd;" horiz-adv-x="1486" 
d="M6 409h-6v844l240 243h1019v-6l147 -147v-349h-106v-1641h-344l-106 106v-106h-394l-147 147h-6v762h-150zM653 714h-300v477h856v255h-949l-210 -213v-774h303v-909h300v1164zM853 -450h250v1568h-250v-1568zM703 758l100 -100v336h-253v-230h153v-6z" />
    <glyph glyph-name="threequarters" unicode="&#xbe;" horiz-adv-x="1486" 
d="M6 409h-6v844l240 243h1019v-6l147 -147v-349h-106v-1641h-344l-106 106v-106h-394l-147 147h-6v762h-150zM653 714h-300v477h856v255h-949l-210 -213v-774h303v-909h300v1164zM853 -450h250v1568h-250v-1568zM703 758l100 -100v336h-253v-230h153v-6z" />
    <glyph glyph-name="questiondown" unicode="&#xbf;" horiz-adv-x="1101" 
d="M649 480h225l147 -153v-524h-624l-397 375v448l244 245v209h31l-35 35h-6v381h393v-6l147 -147v-375h-51l41 -41v-327zM531 266h-184v274l220 229v261h-273v-179l-244 -245v-407l215 -199h559v430h-293v-164zM284 1446v-281h293v281h-293z" />
    <glyph glyph-name="Agrave" unicode="&#xc0;" 
d="M491 1496l-4 4h-4l-268 384h379l4 -10l144 -143l150 -326l62 -62l227 -1540h-403l-147 147h-6l-15 123h-31l-33 -270h-393l-147 147h-6l235 1546h256zM977 0l-213 1446h-486l-221 -1446h297l33 270h250l33 -270h307zM602 545h-182l78 631h30zM311 1834l198 -284h183
l-131 284h-250z" />
    <glyph glyph-name="Aacute" unicode="&#xc1;" 
d="M799 1496h8l1 -7l146 -146l227 -1540h-403l-147 147h-6l-15 123h-31l-33 -270h-393l-147 147h-6l235 1546h39l-4 4h-8l177 384h379l-4 -5l149 -148zM977 0l-213 1446h-486l-221 -1446h297l33 270h250l33 -270h307zM602 545h-182l78 631h30zM472 1834l-131 -284h183
l198 284h-250z" />
    <glyph glyph-name="Acircumflex" unicode="&#xc2;" 
d="M1089 1353h-145l10 -10l227 -1540h-403l-147 147h-6l-15 123h-31l-33 -270h-393l-147 147h-6l218 1438l-110 112h-9l287 384h272l12 -16l137 -137zM977 0l-213 1446h-486l-221 -1446h297l33 270h250l33 -270h307zM394 1550l128 167l128 -167h195l-212 284h-222l-212 -284
h195zM602 545h-182l78 631h30z" />
    <glyph glyph-name="Atilde" unicode="&#xc3;" 
d="M637 1747v78h230v-6l147 -147v-186l-94 -109l34 -34l227 -1540h-403l-147 147h-6l-15 123h-31l-33 -270h-393l-147 147h-6l228 1503l-45 47h-6v191l118 134h215zM977 0l-213 1446h-486l-221 -1446h297l33 270h250l33 -270h307zM687 1658l-192 117h-178l-90 -102v-123h140
v119l196 -119h164l90 104v121h-130v-117zM602 545h-182l78 631h30z" />
    <glyph glyph-name="Adieresis" unicode="&#xc4;" 
d="M547 1782v56h320v-6l147 -147v-332h-70l10 -10l227 -1540h-403l-147 147h-6l-15 123h-31l-33 -270h-393l-147 147h-6l228 1503l-45 47h-6v338h320v-6zM977 0l-213 1446h-486l-221 -1446h297l33 270h250l33 -270h307zM602 545h-182l78 631h30zM817 1550v238h-220v-238h220
zM447 1550v238h-220v-238h220z" />
    <glyph glyph-name="Aring" unicode="&#xc5;" 
d="M1181 -197h-403l-147 147h-6l-15 123h-31l-33 -270h-393l-147 147h-6l235 1546h90q-58 71 -58 169q0 109 78 187t187 78t187 -78q14 -14 27 -32l121 -120q77 -77 77 -185q0 -72 -33 -130l43 -42zM510 1446h-232l-221 -1446h297l33 270h250l33 -270h307l-213 1446h-211
q75 7 130 63q64 64 64 156q0 89 -63 152t-152 63t-152 -63t-63 -152q0 -91 63 -155q55 -57 130 -64zM602 545h-182l78 631h30zM446 1660q0 37 24.5 61.5t61.5 24.5q38 0 62 -24t24 -62q0 -35 -24.5 -59.5t-61.5 -24.5t-61.5 24.5t-24.5 59.5z" />
    <glyph glyph-name="AE" unicode="&#xc6;" horiz-adv-x="1601" 
d="M6 -50h-6l227 1546h1117v-6l147 -147v-369h-342v-32h175v-6l147 -147v-364h-318v-101h201v-6l147 -147v-368h-746l-147 147h-6v123h-13l-33 -270h-403zM57 0h307l33 270h255v-270h652v274h-348v348h318v270h-322v279h342v275h-1024zM432 545l74 631h146v-631h-220z" />
    <glyph glyph-name="Ccedilla" unicode="&#xc7;" horiz-adv-x="1199" 
d="M551 850v-350h401v-6l147 -147v-316l-192 -192l34 -34v-314l-122 -134h-353l-147 147h-6v206h103l-42 42h-6v51h-215l-147 147h-6v1319l246 227h706v-6l147 -147v-640h-398l-147 147h-3zM354 274v897h244v-271h304v546h-636l-216 -199v-1247h368v-198h176v-142h-231v-106
h285l96 106v248h-220v92h178l200 200v250h-304v-176h-244z" />
    <glyph glyph-name="Egrave" unicode="&#xc8;" horiz-adv-x="1059" 
d="M370 1496l-4 4h-4l-268 384h379l4 -10l144 -143l107 -235h74v-6l147 -147v-369h-402v-32h235v-6l147 -147v-364h-378v-101h261v-6l147 -147v-368h-806l-147 147h-6v1546h370zM50 0h712v274h-408v348h378v270h-382v279h402v275h-702v-1446zM190 1834l198 -284h183
l-131 284h-250z" />
    <glyph glyph-name="Eacute" unicode="&#xc9;" horiz-adv-x="1059" 
d="M668 1496h134v-6l147 -147v-369h-402v-32h235v-6l147 -147v-364h-378v-101h261v-6l147 -147v-368h-806l-147 147h-6v1546h143l-4 4h-8l177 384h379l-4 -5l149 -148zM50 0h712v274h-408v348h378v270h-382v279h402v275h-702v-1446zM591 1834h-250l-131 -284h183z" />
    <glyph glyph-name="Ecircumflex" unicode="&#xca;" horiz-adv-x="1090" 
d="M990 1353h-29l10 -10v-369h-402v-32h235v-6l147 -147v-364h-378v-101h261v-6l147 -147v-368h-806l-147 147h-6v1537l-13 13h-9l287 384h272l12 -16l137 -137zM72 0h712v274h-408v348h378v270h-382v279h402v275h-702v-1446zM746 1550l-212 284h-222l-212 -284h195l128 167
l128 -167h195z" />
    <glyph glyph-name="Edieresis" unicode="&#xcb;" horiz-adv-x="1059" 
d="M416 1782v56h320v-6l147 -147v-276l66 -66v-369h-402v-32h235v-6l147 -147v-364h-378v-101h261v-6l147 -147v-368h-806l-147 147h-6v1546h56l-4 4h-6v338h320v-6zM50 0h712v274h-408v348h378v270h-382v279h402v275h-702v-1446zM686 1550v238h-220v-238h220zM316 1550v238
h-220v-238h220z" />
    <glyph glyph-name="Igrave" unicode="&#xcc;" horiz-adv-x="850" 
d="M15 1884h379l4 -10l144 -143l153 -334l55 -54v-368h-100v-704l100 -100v-368h-597l-147 147h-6v374h100v704l-94 94h-6v374h291l-4 4h-4zM453 274v898h100v274h-503v-274h100v-898h-100v-274h503v274h-100zM111 1834l198 -284h183l-131 284h-250z" />
    <glyph glyph-name="Iacute" unicode="&#xcd;" horiz-adv-x="850" 
d="M569 1496h34v-6l147 -147v-368h-100v-704l100 -100v-368h-597l-147 147h-6v374h100v704l-94 94h-6v374h44l-4 4h-8l177 384h379l-4 -5l149 -148zM453 274v898h100v274h-503v-274h100v-898h-100v-274h503v274h-100zM492 1834h-250l-131 -284h183z" />
    <glyph glyph-name="Icircumflex" unicode="&#xce;" horiz-adv-x="1090" 
d="M990 1353h-129l10 -10v-368h-100v-704l100 -100v-368h-597l-147 147h-6v374h100v704l-94 94h-6v266l-112 112h-9l287 384h272l12 -16l137 -137zM574 274v898h100v274h-503v-274h100v-898h-100v-274h503v274h-100zM746 1550l-212 284h-222l-212 -284h195l128 167l128 -167
h195z" />
    <glyph glyph-name="Idieresis" unicode="&#xcf;" horiz-adv-x="937" 
d="M793 1353l10 -10v-368h-100v-704l100 -100v-368h-597l-147 147h-6v374h100v704l-94 94h-6v331l-47 47h-6v338h320v-6l50 -50v56h320v-6l147 -147v-332h-44zM506 274v898h100v274h-503v-274h100v-898h-100v-274h503v274h-100zM640 1550v238h-220v-238h220zM270 1550v238
h-220v-238h220z" />
    <glyph glyph-name="Eth" unicode="&#xd0;" horiz-adv-x="1272" 
d="M70 1496h693l262 -258v-4l147 -147v-1056l-231 -228h-718l-147 147h-6v546l-64 64h-6v320h70v616zM120 610v-610h652l203 200v1017l-233 229h-622v-616h-70v-220h70zM423 274v336h146v220h-146v341h248v-897h-248z" />
    <glyph glyph-name="Ntilde" unicode="&#xd1;" horiz-adv-x="1227" 
d="M610 1747v78h230v-6l147 -147v-186l-2 -2l142 -141v-1540h-380l-147 147h-6v279l-63 129v-555h-378l-147 147h-6v1546h160l-4 4h-6v191l118 134h215zM644 815l-290 631h-304v-1446h284v880l310 -638v-242h286v1446h-286v-631zM660 1658l-192 117h-178l-90 -102v-123h140
v119l196 -119h164l90 104v121h-130v-117zM525 1353l10 -10l59 -129v187l-57 35v-83h-12z" />
    <glyph glyph-name="Ograve" unicode="&#xd2;" horiz-adv-x="1220" 
d="M200 1884h379l4 -10l144 -143l107 -235h139v-6l147 -147v-1540h-967l-147 147h-6v1546h476l-4 4h-4zM50 0h873v1446h-873v-1446zM354 1171h266v-897h-266v897zM296 1834l198 -284h183l-131 284h-250z" />
    <glyph glyph-name="Oacute" unicode="&#xd3;" horiz-adv-x="1220" 
d="M754 1496h219v-6l147 -147v-1540h-967l-147 147h-6v1546h229l-4 4h-8l177 384h379l-4 -5l149 -148zM50 0h873v1446h-873v-1446zM354 1171h266v-897h-266v897zM677 1834h-250l-131 -284h183z" />
    <glyph glyph-name="Ocircumflex" unicode="&#xd4;" horiz-adv-x="1220" 
d="M1120 -197h-967l-147 147h-6v1546h76l-4 4h-9l287 384h272l12 -16l137 -137l175 -235h27v-6l147 -147v-1540zM50 0h873v1446h-873v-1446zM354 1171h266v-897h-266v897zM809 1550l-212 284h-222l-212 -284h195l128 167l128 -167h195z" />
    <glyph glyph-name="Otilde" unicode="&#xd5;" horiz-adv-x="1220" 
d="M601 1747v78h230v-6l147 -147v-186l-1 -1l143 -142v-1540h-967l-147 147h-6v1546h151l-4 4h-6v191l118 134h215zM50 0h873v1446h-873v-1446zM354 1171h266v-897h-266v897zM651 1658l-192 117h-178l-90 -102v-123h140v119l196 -119h164l90 104v121h-130v-117z" />
    <glyph glyph-name="Odieresis" unicode="&#xd6;" horiz-adv-x="1220" 
d="M501 1782v56h320v-6l147 -147v-189h5v-6l147 -147v-1540h-967l-147 147h-6v1546h141l-4 4h-6v338h320v-6zM50 0h873v1446h-873v-1446zM354 1171h266v-897h-266v897zM771 1550v238h-220v-238h220zM401 1550v238h-220v-238h220z" />
    <glyph glyph-name="multiply" unicode="&#xd7;" horiz-adv-x="1242" 
d="M211 1218l297 -297l297 297l211 -211l-2 -2l148 -148l-295 -295l149 -149l-2 -2l148 -148l-207 -207l-148 148l-2 -2l-149 149l-295 -295l-148 148l-2 -2l-211 211l297 297l-297 297zM508 851l-297 297l-141 -141l297 -297l-297 -297l141 -141l297 297l297 -297l141 141
l-297 297l297 297l-141 141z" />
    <glyph glyph-name="Oslash" unicode="&#xd8;" horiz-adv-x="1246" 
d="M377 -446l-223 123l-143 143l-11 6l41 103l-21 21h-6v1546h654l102 253l230 -131l-2 -4l148 -147l-39 -97l27 -27v-1540h-657zM125 0l-61 -152l139 -77l92 229h642v1446h-61l61 151l-141 80l-93 -231h-639v-1446h61zM634 843v-569h-229zM368 607v564h225z" />
    <glyph glyph-name="Ugrave" unicode="&#xd9;" horiz-adv-x="1202" 
d="M191 1884h379l4 -10l144 -143l107 -235h130v-6l147 -147v-1540h-949l-147 147h-6v1546h403v-6l148 -149v71l-88 88h-4zM905 1446h-304v-1172h-248v1172h-303v-1446h855v1446zM287 1834l198 -284h183l-131 284h-250z" />
    <glyph glyph-name="Uacute" unicode="&#xda;" horiz-adv-x="1202" 
d="M764 1884l-4 -5l149 -148l-165 -235h211v-6l147 -147v-1540h-949l-147 147h-6v1546h220l-4 4h-8l177 384h379zM905 1446h-304v-1172h-248v1172h-303v-1446h855v1446zM668 1834h-250l-131 -284h183z" />
    <glyph glyph-name="Ucircumflex" unicode="&#xdb;" horiz-adv-x="1202" 
d="M1102 -197h-949l-147 147h-6v1546h67l-4 4h-9l287 384h272l12 -16l137 -137l175 -235h18v-6l147 -147v-1540zM905 1446h-304v-1172h-248v1172h-303v-1446h855v1446zM800 1550l-212 284h-222l-212 -284h195l128 167l128 -167h195z" />
    <glyph glyph-name="Udieresis" unicode="&#xdc;" horiz-adv-x="1202" 
d="M492 1782v56h320v-6l147 -147v-199l143 -143v-1540h-949l-147 147h-6v1546h132l-4 4h-6v338h320v-6zM905 1446h-304v-1172h-248v1172h-303v-1446h855v1446zM762 1550v238h-220v-238h220zM392 1550v238h-220v-238h220z" />
    <glyph glyph-name="Yacute" unicode="&#xdd;" horiz-adv-x="1306" 
d="M816 1884l-4 -5l149 -148l-165 -235h264l-2 -5l148 -148l-520 -1540h-416l-147 147h-7l203 603l-319 943h272l-4 4h-8l177 384h379zM523 998l-140 448h-313l303 -893l-187 -553h316l488 1446h-315zM720 1834h-250l-131 -284h183z" />
    <glyph glyph-name="Thorn" unicode="&#xde;" horiz-adv-x="1186" 
d="M0 1496h403v-6l147 -147v-47h383l153 -147v-1039h-536v-307h-397l-147 147h-6v1546zM353 307h536v939h-536v200h-303v-1446h303v307zM353 584v387h233v-387h-233z" />
    <glyph glyph-name="germandbls" unicode="&#xdf;" horiz-adv-x="2062" 
d="M930 1446v50h876v-6l147 -147v-524h-369l-104 104v-28l335 -251v-4l147 -147v-690h-889l-31 31v-31h-889l-147 147h-6v550h403v-6l88 -88v39l-328 248l-137 136l-16 13v654h876v-6zM541 274h-188v176h-303v-450h795v619l-482 362v189h198v-154h275v430h-776v-579
l481 -363v-230zM1273 274v176h-303v-450h795v619l-482 362v189h198v-154h275v430h-776v-579l481 -363v-230h-188zM560 923v-28l335 -251v-4l140 -140h288v-6l88 -88v39l-328 248l-126 126h-293z" />
    <glyph glyph-name="agrave" unicode="&#xe0;" 
d="M1181 -197h-403l-147 147h-6l-15 123h-31l-33 -270h-393l-147 147h-6l235 1546h276l-4 4h-4l-268 384h379l4 -10l144 -143l167 -363l25 -25zM977 0l-213 1446h-486l-221 -1446h297l33 270h250l33 -270h307zM420 545l78 631h30l74 -631h-182zM331 1834l198 -284h183
l-131 284h-250z" />
    <glyph glyph-name="aacute" unicode="&#xe1;" 
d="M1181 -197h-403l-147 147h-6l-15 123h-31l-33 -270h-393l-147 147h-6l235 1546h29l-4 4h-8l177 384h379l-4 -5l149 -148l-164 -235h18l1 -7l146 -146zM977 0l-213 1446h-486l-221 -1446h297l33 270h250l33 -270h307zM420 545l78 631h30l74 -631h-182zM712 1834h-250
l-131 -284h183z" />
    <glyph glyph-name="acircumflex" unicode="&#xe2;" 
d="M1181 -197h-403l-147 147h-6l-15 123h-31l-33 -270h-393l-147 147h-6l218 1438l-110 112h-9l287 384h272l12 -16l137 -137l282 -378h-145l10 -10zM977 0l-213 1446h-486l-221 -1446h297l33 270h250l33 -270h307zM845 1550l-212 284h-222l-212 -284h195l128 167l128 -167
h195zM420 545l78 631h30l74 -631h-182z" />
    <glyph glyph-name="atilde" unicode="&#xe3;" 
d="M637 1747v78h230v-6l147 -147v-186l-94 -109l34 -34l227 -1540h-403l-147 147h-6l-15 123h-31l-33 -270h-393l-147 147h-6l228 1503l-45 47h-6v191l118 134h215zM977 0l-213 1446h-486l-221 -1446h297l33 270h250l33 -270h307zM687 1658l-192 117h-178l-90 -102v-123h140
v119l196 -119h164l90 104v121h-130v-117zM420 545l78 631h30l74 -631h-182z" />
    <glyph glyph-name="adieresis" unicode="&#xe4;" 
d="M537 1782v56h320v-6l147 -147v-332h-60l10 -10l227 -1540h-403l-147 147h-6l-15 123h-31l-33 -270h-393l-147 147h-6l227 1495l-54 55h-6v338h320v-6zM977 0l-213 1446h-486l-221 -1446h297l33 270h250l33 -270h307zM420 545l78 631h30l74 -631h-182zM807 1550v238h-220
v-238h220zM437 1550v238h-220v-238h220z" />
    <glyph glyph-name="aring" unicode="&#xe5;" 
d="M1181 -197h-403l-147 147h-6l-15 123h-31l-33 -270h-393l-147 147h-6l235 1546h80q-58 71 -58 169q0 109 78 187t187 78t187 -78q14 -14 27 -32l121 -120q77 -77 77 -185q0 -67 -29 -123l49 -49zM543 1446q75 7 130 63q64 64 64 156q0 89 -63 152t-152 63t-152 -63
t-63 -152q0 -91 63 -155q55 -57 130 -64h-222l-221 -1446h297l33 270h250l33 -270h307l-213 1446h-221zM420 545l78 631h30l74 -631h-182zM436 1660q0 37 24.5 61.5t61.5 24.5q38 0 62 -24t24 -62q0 -35 -24.5 -59.5t-61.5 -24.5t-61.5 24.5t-24.5 59.5z" />
    <glyph glyph-name="ae" unicode="&#xe6;" horiz-adv-x="1601" 
d="M602 73h-13l-33 -270h-403l-147 147h-6l227 1546h1117v-6l147 -147v-369h-342v-32h175v-6l147 -147v-364h-318v-101h201v-6l147 -147v-368h-746l-147 147h-6v123zM952 1171h342v275h-1024l-213 -1446h307l33 270h255v-270h652v274h-348v348h318v270h-322v279zM432 545
l74 631h146v-631h-220z" />
    <glyph glyph-name="ccedilla" unicode="&#xe7;" horiz-adv-x="1199" 
d="M416 -290l-42 42h-6v51h-215l-147 147h-6v1319l246 227h706v-6l147 -147v-640h-398l-147 147h-3v-350h401v-6l147 -147v-544h-158v-312l-122 -134h-353l-147 147h-6v206h103zM354 274v897h244v-271h304v546h-636l-216 -199v-1247h368v-198h176v-142h-231v-106h285l96 106
v248h-220v92h378v450h-304v-176h-244z" />
    <glyph glyph-name="egrave" unicode="&#xe8;" horiz-adv-x="1059" 
d="M114 1884h379l4 -10l144 -143l107 -235h54v-6l147 -147v-369h-402v-32h235v-6l147 -147v-364h-378v-101h261v-6l147 -147v-368h-806l-147 147h-6v1319l246 227h144l-4 4h-4zM350 892v279h402v275h-486l-216 -199v-1247h712v274h-408v348h378v270h-382zM210 1834l198 -284
h183l-131 284h-250z" />
    <glyph glyph-name="eacute" unicode="&#xe9;" horiz-adv-x="1059" 
d="M728 1496h74v-6l147 -147v-369h-402v-32h235v-6l147 -147v-364h-378v-101h261v-6l147 -147v-368h-806l-147 147h-6v1319l223 206l-24 25h-8l177 384h379l-4 -5l149 -148zM350 892v279h402v275h-486l-216 -199v-1247h712v274h-408v348h378v270h-382zM651 1834h-250
l-131 -284h183z" />
    <glyph glyph-name="ecircumflex" unicode="&#xea;" horiz-adv-x="1090" 
d="M951 1353l10 -10v-369h-402v-32h235v-6l147 -147v-364h-378v-101h261v-6l147 -147v-368h-806l-147 147h-6v1319l118 109l-121 122h-9l287 384h272l12 -16l137 -137l282 -378h-39zM362 892v279h402v275h-486l-216 -199v-1247h712v274h-408v348h378v270h-382zM746 1550
l-212 284h-222l-212 -284h195l128 167l128 -167h195z" />
    <glyph glyph-name="edieresis" unicode="&#xeb;" horiz-adv-x="1059" 
d="M426 1782v56h320v-6l147 -147v-286l56 -56v-369h-402v-32h235v-6l147 -147v-364h-378v-101h261v-6l147 -147v-368h-806l-147 147h-6v1319l152 140l-90 91h-6v338h320v-6zM350 892v279h402v275h-486l-216 -199v-1247h712v274h-408v348h378v270h-382zM696 1550v238h-220
v-238h220zM326 1550v238h-220v-238h220z" />
    <glyph glyph-name="igrave" unicode="&#xec;" horiz-adv-x="781" 
d="M633 964l65 -65v-1096h-397l-147 147h-6v1102h183l-59 59h-4l-268 384h379l4 -10l144 -143l174 -378h-68zM198 1002v-1002h303v1002h-303zM96 1445l198 -284h183l-131 284h-250z" />
    <glyph glyph-name="iacute" unicode="&#xed;" horiz-adv-x="781" 
d="M66 1052l-58 58h-8l177 384h379l-4 -5l149 -148l-233 -333l110 -109v-1096h-397l-147 147h-6v1102h38zM78 1002v-1002h303v1002h-303zM460 1444h-250l-131 -284h183z" />
    <glyph glyph-name="icircumflex" unicode="&#xee;" horiz-adv-x="1070" 
d="M705 965l66 -66v-1096h-397l-147 147h-6v1015h-65l-147 147h-9l287 384h272l12 -16l137 -137l282 -378h-285zM271 1002v-1002h303v1002h-303zM746 1162l-212 284h-222l-212 -284h195l128 167l128 -167h195zM534 1052h57l-32 32z" />
    <glyph glyph-name="idieresis" unicode="&#xef;" horiz-adv-x="917" 
d="M370 1440v56h320v-6l147 -147v-332h-246l112 -112v-1096h-397l-147 147h-6v1061l-147 147h-6v338h320v-6zM203 1002v-1002h303v1002h-303zM640 1208v238h-220v-238h220zM270 1208v238h-220v-238h220z" />
    <glyph glyph-name="eth" unicode="&#xf0;" horiz-adv-x="1272" 
d="M76 -50h-6v546l-64 64h-6v320h70v616h693l262 -258v-4l147 -147v-1284h-949zM975 0v1217l-233 229h-622v-616h-70v-220h70v-610h855zM423 274v336h136v220h-136v341h248v-897h-248z" />
    <glyph glyph-name="ntilde" unicode="&#xf1;" horiz-adv-x="1217" 
d="M583 1747v78h230v-6l147 -147v-186l-97 -113l107 -107v-4l147 -147v-1312h-380l-147 147h-6v1033h-53v-1180h-378l-147 147h-6v1546h133l-4 4h-6v191l118 134h215zM334 1180h300v-1180h286v1246l-200 200h-670v-1446h284v1180zM633 1658l-192 117h-178l-90 -102v-123h140
v119l196 -119h164l90 104v121h-130v-117z" />
    <glyph glyph-name="ograve" unicode="&#xf2;" horiz-adv-x="1224" 
d="M424 1498l-272 386h379l4 -10l144 -143l149 -326l149 -137v-4l147 -147v-1314h-727l-397 374v1320zM927 1247l-215 199l-662 1v-1248l216 -199h661v1247zM624 1171v-897h-270v897h270zM248 1834l198 -284h183l-131 284h-250z" />
    <glyph glyph-name="oacute" unicode="&#xf3;" horiz-adv-x="1224" 
d="M740 1487l237 -219v-4l147 -147v-1314h-727l-397 374v1320l209 1l177 386h379l-4 -5l149 -148zM50 1447v-1248l216 -199h661v1247l-215 199zM624 1171v-897h-270v897h270zM669 1834h-250l-131 -284h183z" />
    <glyph glyph-name="ocircumflex" unicode="&#xf4;" horiz-adv-x="1224" 
d="M885 1353l239 -236v-1314h-727l-397 374v1320h67l-3 3h-9l287 384h272l12 -16l137 -137l282 -378h-160zM927 1247l-215 199l-662 1v-1248l216 -199h661v1247zM624 1171v-897h-270v897h270zM801 1550l-212 284h-222l-212 -284h195l128 167l128 -167h195z" />
    <glyph glyph-name="otilde" unicode="&#xf5;" horiz-adv-x="1224" 
d="M593 1747v78h230v-6l147 -147v-186l-102 -118l109 -100v-4l147 -147v-1314h-727l-397 374v1320l141 -1l-3 4h-5v191l118 134h215zM927 1247l-215 199l-662 1v-1248l216 -199h661v1247zM624 1171v-897h-270v897h270zM643 1658l-192 117h-178l-90 -102v-123h140v119
l196 -119h164l90 104v121h-130v-117z" />
    <glyph glyph-name="odieresis" unicode="&#xf6;" horiz-adv-x="1224" 
d="M487 1782v56h320v-6l147 -147v-332h-69l92 -85v-4l147 -147v-1314h-727l-397 374v1320l125 -1l-3 4h-5v338h320v-6zM50 1447v-1248l216 -199h661v1247l-215 199zM624 1171v-897h-270v897h270zM757 1550v238h-220v-238h220zM387 1550v238h-220v-238h220z" />
    <glyph glyph-name="divide" unicode="&#xf7;" horiz-adv-x="1307" 
d="M548 860l-128 127q-12 9 -24 21q-58 61 -58 144t59 142q30 29 65.5 44t77.5 15q77 0 137 -55v1q8 -8 15 -17l8 -10l133 -133q56 -56 56 -137q0 -82 -59 -141l-1 -1h231v-6l147 -147v-294h-521l20 -24l124 -124q59 -59 59 -140q0 -82 -59 -139q-60 -57 -140 -57
q-41 0 -76.5 13.5t-64.5 42.5l-127 127q-12 8 -25 21q-59 59 -59 142q0 82 55 138h-240l-147 147h-6v300h548zM50 610h960v200h-960v-200zM540 427q-63 0 -108 -45q-44 -44 -44 -107q0 -62 44 -106q44 -43 108 -43q61 0 107 44q45 43 45 105t-45 107t-107 45zM540 1304
q-63 0 -108 -45q-44 -44 -44 -107q0 -62 44 -106q44 -43 108 -43q61 0 107 44q45 43 45 105t-45 107t-107 45z" />
    <glyph glyph-name="oslash" unicode="&#xf8;" horiz-adv-x="1250" 
d="M774 1749l230 -131l146 -151l-104 -258l92 -91v-1315h-661l-100 -249l-223 123l-143 143l-11 6l106 262l-92 89v1320l658 -1zM800 1677l-93 -231l-643 1v-1248l103 -95l-103 -256l139 -77l92 229h646v1247l-103 95l103 255zM638 847v-573h-232zM368 603v568h228z" />
    <glyph glyph-name="ugrave" unicode="&#xf9;" horiz-adv-x="1202" 
d="M161 1884h379l4 -10l144 -143l107 -235h160v-6l147 -147v-1540h-707l-395 375v1318h403v-6l148 -148v40l-118 118h-4zM905 1446h-304v-1172h-248v1172h-303v-1247l213 -199h642v1446zM257 1834l198 -284h183l-131 284h-250z" />
    <glyph glyph-name="uacute" unicode="&#xfa;" horiz-adv-x="1202" 
d="M955 1490l147 -147v-1540h-707l-395 375v1318h220l-4 4h-8l177 384h379l-4 -5l149 -148l-165 -235h211v-6zM905 1446h-304v-1172h-248v1172h-303v-1247l213 -199h642v1446zM668 1834h-250l-131 -284h183z" />
    <glyph glyph-name="ucircumflex" unicode="&#xfb;" horiz-adv-x="1202" 
d="M955 1490l147 -147v-1540h-707l-395 375v1318h67l-4 4h-9l287 384h272l12 -16l137 -137l175 -235h18v-6zM905 1446h-304v-1172h-248v1172h-303v-1247l213 -199h642v1446zM800 1550l-212 284h-222l-212 -284h195l128 167l128 -167h195z" />
    <glyph glyph-name="udieresis" unicode="&#xfc;" horiz-adv-x="1202" 
d="M492 1782v56h320v-6l147 -147v-199l143 -143v-1540h-707l-395 375v1318h132l-4 4h-6v338h320v-6zM905 1446h-304v-1172h-248v1172h-303v-1247l213 -199h642v1446zM762 1550v238h-220v-238h220zM392 1550v238h-220v-238h220z" />
    <glyph glyph-name="yacute" unicode="&#xfd;" horiz-adv-x="1286" 
d="M796 1496h264l-2 -5l148 -148l-346 -929v-611h-400l-147 147h-6v654l-307 892h271l-4 4h-8l177 384h379l-4 -5l149 -148zM536 990l-142 456h-325l288 -834v-612h306v572l326 874h-313zM719 1834h-250l-131 -284h183z" />
    <glyph glyph-name="thorn" unicode="&#xfe;" horiz-adv-x="1186" 
d="M550 1296h133l256 -242v-4l147 -147v-793h-536v-307h-397l-147 147h-6v1546h403v-6l147 -147v-47zM353 307h536v726l-225 213h-311v200h-303v-1446h303v307zM353 584v387h233v-387h-233z" />
    <glyph glyph-name="ydieresis" unicode="&#xff;" horiz-adv-x="1286" 
d="M544 1782v56h320v-6l147 -147v-189h49l-2 -5l148 -148l-346 -929v-611h-400l-147 147h-6v654l-307 892h184l-4 4h-6v338h320v-6zM536 990l-142 456h-325l288 -834v-612h306v572l326 874h-313zM814 1550v238h-220v-238h220zM444 1550v238h-220v-238h220z" />
    <glyph glyph-name="dotlessi" unicode="&#x131;" horiz-adv-x="630" 
d="M550 -197h-397l-147 147h-6v1102h403v-6l147 -147v-1096zM50 1002v-1002h303v1002h-303z" />
    <glyph glyph-name="Lslash" unicode="&#x141;" horiz-adv-x="1120" 
d="M0 388v372l66 33v703h403l147 -153v-274l153 -152v-357l-153 -79v-157h277v-6l147 -147v-368h-821l-147 147h-6v380l-60 60zM572 991l-153 -77v532h-303v-684l-66 -33v-258l66 34v-505h727v274h-424v386l153 79v252z" />
    <glyph glyph-name="lslash" unicode="&#x142;" horiz-adv-x="1120" 
d="M0 388v372l66 33v703h403v-6l147 -147v-274l153 -152v-357l-153 -79v-157h277v-6l147 -147v-368h-821l-147 147h-6v380l-60 60zM572 991l-153 -77v532h-303v-684l-66 -33v-258l66 34v-505h727v274h-424v386l153 79v252z" />
    <glyph glyph-name="OE" unicode="&#x152;" horiz-adv-x="1613" 
d="M1201 942h155v-6l147 -147v-364h-298v-101h161v-6l147 -147v-368h-1360l-147 146h-6v1547h1356v-6l147 -147v-369h-302v-32zM1008 622h298v270h-302v279h302v275h-1256v-1447l1266 1v274h-308v348zM354 1171h350v-897h-350v897zM551 324h103v650h-103v-650z" />
    <glyph glyph-name="oe" unicode="&#x153;" horiz-adv-x="1613" 
d="M1201 942h155v-6l147 -147v-364h-298v-101h161v-6l147 -147v-368h-1116l-397 374v1319h1356v-6l147 -147v-369h-302v-32zM1008 622h298v270h-302v279h302v275h-1256v-1247l216 -199h1050v274h-308v348zM354 1171h350v-897h-350v897zM551 324h103v650h-103v-650z" />
    <glyph glyph-name="Scaron" unicode="&#x160;" horiz-adv-x="1122" 
d="M895 640l147 -147v-690h-889l-147 147h-6v550h403v-6l88 -88v39l-328 248l-137 136l-16 13v654h309l-4 4h-4l-287 384h319l13 -18l102 -102l93 120h319l-4 -5l148 -148l-176 -235h48v-6l147 -147v-524h-369l-104 104v-28l335 -251v-4zM845 619l-482 362v189h198v-154h275
v430h-776v-579l481 -363v-230h-188v176h-303v-450h795v619zM575 1834l-128 -167l-128 167h-195l212 -284h222l212 284h-195z" />
    <glyph glyph-name="scaron" unicode="&#x161;" horiz-adv-x="1122" 
d="M560 923v-28l335 -251v-4l147 -147v-690h-661l-147 147h-4l-230 230v320h403v-6l88 -88v39l-328 248l-137 136l-16 13v654h309l-4 4h-4l-287 384h319l13 -18l102 -102l93 120h319l-4 -5l148 -148l-254 -340l126 -125v-4l147 -147v-296h-369zM561 1016h275v230l-200 200
h-576v-579l481 -363v-230h-188v176h-303v-250l200 -200h595v619l-482 362v189h198v-154zM770 1834h-195l-128 -167l-128 167h-195l212 -284h222z" />
    <glyph glyph-name="Ydieresis" unicode="&#x178;" horiz-adv-x="1286" 
d="M0 1496h185l-4 4h-6v338h320v-6l50 -50v56h320v-6l147 -147v-189h48l-2 -5l148 -148l-520 -1540h-416l-147 147h-7l203 603zM523 998l-140 448h-313l303 -893l-187 -553h316l488 1446h-315zM815 1550v238h-220v-238h220zM445 1550v238h-220v-238h220z" />
    <glyph glyph-name="florin" unicode="&#x192;" horiz-adv-x="1189" 
d="M51 50h170l64 463l-96 98h-6l48 356h117l42 302l227 227h345l-1 -6l148 -147l-51 -369h-166l-5 -37l124 -123l-48 -350h-141l-99 -712l-228 -224h-342l-147 147h-6zM265 0h-170l-38 -275h268l203 199l103 737h141l35 256h-141l35 254h166l38 275h-268l-199 -199l-46 -330
h-117l-35 -256h117z" />
    <glyph glyph-name="circumflex" unicode="&#x2c6;" horiz-adv-x="1070" 
d="M559 1472l-91 -119h-312l-147 147h-9l287 384h272l12 -16l137 -137l282 -378h-312zM423 1717l128 -167h195l-212 284h-222l-212 -284h195z" />
    <glyph glyph-name="caron" unicode="&#x2c7;" horiz-adv-x="1070" 
d="M429 1756l98 128h319l144 -153l-282 -378h-270l-151 147l-287 384h325zM423 1667l-128 167h-195l212 -284h222l212 284h-195z" />
    <glyph glyph-name="breve" unicode="&#x2d8;" horiz-adv-x="943" 
d="M265 1864l125 -125h61v131h265v-6l147 -147v-199l-163 -165h-384l-147 147h-4l-165 167v203h265v-6zM215 1689v131h-165v-133l135 -137h346l135 137v133h-165v-131h-286z" />
    <glyph glyph-name="dotaccent" unicode="&#x2d9;" horiz-adv-x="545" 
d="M465 1353h-312l-147 147h-6v338h318v-6l147 -147v-332zM268 1550v238h-218v-238h218z" />
    <glyph glyph-name="ring" unicode="&#x2da;" horiz-adv-x="757" 
d="M0 1665q0 109 78 187t187 78t187 -78q14 -14 27 -32l121 -120q77 -77 77 -185q0 -111 -78 -189h1q-77 -78 -185 -78q-107 0 -183 76l-121 120q-18 13 -34 31q-77 78 -77 190zM50 1665q0 -91 63 -155q63 -65 152 -65q88 0 151 64q64 64 64 156q0 89 -63 152t-152 63
t-152 -63t-63 -152zM179 1660q0 37 24.5 61.5t61.5 24.5q38 0 62 -24t24 -62q0 -35 -24.5 -59.5t-61.5 -24.5t-61.5 24.5t-24.5 59.5z" />
    <glyph glyph-name="ogonek" unicode="&#x2db;" horiz-adv-x="663" 
d="M461 -265l122 -122v-242h-430l-147 147h-6v332l183 220h231l-3 -5l148 -148zM331 20h-125l-156 -188v-264h336v148h-156v117z" />
    <glyph glyph-name="tilde" unicode="&#x2dc;" horiz-adv-x="917" 
d="M460 1747v78h230v-6l147 -147v-186l-115 -133h-198l-137 83v-83h-234l-147 147h-6v191l118 134h215zM510 1658l-192 117h-178l-90 -102v-123h140v119l196 -119h164l90 104v121h-130v-117z" />
    <glyph glyph-name="hungarumlaut" unicode="&#x2dd;" horiz-adv-x="1102" 
d="M1022 1731l-262 -378h-605l-147 147h-8l175 384h702zM782 1834h-240l-164 -284h207zM438 1834h-231l-129 -284h190z" />
    <glyph glyph-name="endash" unicode="&#x2013;" horiz-adv-x="1197" 
d="M1117 383h-964l-147 147h-6v251h970v-6l147 -147v-245zM920 580v151h-870v-151h870z" />
    <glyph glyph-name="emdash" unicode="&#x2014;" horiz-adv-x="1693" 
d="M0 781h1466v-6l147 -147v-245h-1460l-147 147h-6v251zM50 580h1366v151h-1366v-151z" />
    <glyph glyph-name="quoteleft" unicode="&#x2018;" horiz-adv-x="643" 
d="M470 964l93 -128l-204 -124l-148 147l-3 -2l-208 325v314h374v-6l147 -147v-379h-51zM228 1161h96v285h-274v-248l174 -272l121 73z" />
    <glyph glyph-name="quoteright" unicode="&#x2019;" horiz-adv-x="645" 
d="M0 985l74 101l-25 25h-6v385h375v-6l147 -147v-309l-206 -322l-204 124l-140 139zM190 1161l-117 -162l121 -73l174 272v248h-275v-285h97z" />
    <glyph glyph-name="quotesinglbase" unicode="&#x201a;" horiz-adv-x="645" 
d="M0 -177l74 102l-25 25h-6v385h375v-6l147 -147v-309l-206 -323l-204 124l-140 140zM190 0l-117 -162l121 -74l174 273v248h-275v-285h97z" />
    <glyph glyph-name="quotedblleft" unicode="&#x201c;" horiz-adv-x="1022" 
d="M470 964l93 -128l-204 -124l-148 147l-3 -2l-208 325v314h753v-6l147 -147v-379h-51l93 -128l-204 -124l-148 147l-3 -2l-69 107h-48zM607 1161h96v285h-274v-248l174 -272l121 73zM228 1161h96v285h-274v-248l174 -272l121 73z" />
    <glyph glyph-name="quotedblright" unicode="&#x201d;" horiz-adv-x="1024" 
d="M475 894l-116 -182l-204 124l-140 139l-15 10l74 101l-25 25h-6v385h754v-6l147 -147v-309l-207 -322l-202 123zM190 1161l-117 -162l121 -73l174 272v248h-275v-285h97zM568 1161l-116 -162l120 -73l175 272v248h-275v-285h96z" />
    <glyph glyph-name="quotedblbase" unicode="&#x201e;" horiz-adv-x="1024" 
d="M74 -75l-25 25h-6v385h375v-6l4 -4v10h375v-6l147 -147v-309l-207 -323l-202 124l-59 59l-117 -183l-204 124l-140 140l-15 9zM73 -162l121 -74l174 273v248h-275v-285h97zM452 -162l120 -74l175 273v248h-275v-285h96z" />
    <glyph glyph-name="dagger" unicode="&#x2020;" horiz-adv-x="1122" 
d="M749 1218h146v-6l147 -147v-285h-293v-1127h-303l-147 147h-6v980h-140l-147 147h-6v291h293v428h309v-6l147 -147v-275zM552 -150v1127h293v191h-293v428h-209v-428h-293v-191h293v-1127h209z" />
    <glyph glyph-name="daggerdbl" unicode="&#x2021;" horiz-adv-x="1122" 
d="M749 1267h146v-6l147 -147v-284h-293v-362h146v-6l147 -147v-285h-293v-377h-303l-147 147h-6v230h-140l-147 147h-6v291h293v362h-140l-147 147h-6v290h293v379h309v-6l147 -147v-226zM552 1027h293v190h-293v379h-209v-379h-293v-190h293v-609h-293v-191h293v-377h209
v377h293v191h-293v609z" />
    <glyph glyph-name="bullet" unicode="&#x2022;" horiz-adv-x="758" 
d="M678 324h-525l-147 147h-6v569h531v-6l147 -147v-563zM481 521v469h-431v-469h431z" />
    <glyph glyph-name="ellipsis" unicode="&#x2026;" horiz-adv-x="1705" 
d="M553 -61v-136h-400l-147 147h-6v425h406v-6l130 -130v136h406v-6l130 -130v136h406v-6l147 -147v-419h-400l-136 136v-136h-400zM356 0v325h-306v-325h306zM892 0v325h-306v-325h306zM1428 0v325h-306v-325h306z" />
    <glyph glyph-name="perthousand" unicode="&#x2030;" horiz-adv-x="2318" 
d="M792 1053l349 472l200 -138l-2 -3l148 -148l-344 -461h247v-6l124 -125l101 131h476v-6l147 -147v-602l-178 -217h-461l-132 132l-108 -132h-461l-147 147h-6v290l-349 -468l-177 147l-130 130l-24 20l336 455h-248l-147 147h-6v606l181 219h464v-6l147 -147v-290z
M2041 725h-402l-143 -187v-538h392l153 187v538zM1340 725h-402l-143 -187v-538h392l153 187v538zM595 1446h-391l-154 -187v-538h402l143 187v538zM238 -10l1032 1385l-117 81l-1020 -1379zM998 541h139v-357h-139v357zM1699 541h139v-357h-139v357zM255 1262h137v-357
h-137v357z" />
    <glyph glyph-name="guilsinglleft" unicode="&#x2039;" horiz-adv-x="759" 
d="M321 1181l212 -177l-2 -3l148 -147l-216 -347l215 -352l-207 -173l-148 148l-2 -2l-321 400v258zM328 1110l-278 -343v-221l278 -347l139 116l-209 342l209 337z" />
    <glyph glyph-name="guilsinglright" unicode="&#x203a;" horiz-adv-x="760" 
d="M212 1181l17 -22l133 -132l318 -392v-256l-318 -397l-207 173l-129 129l-25 21l214 351l-215 348zM205 1110l-139 -116l209 -337l-209 -342l139 -116l278 347v221z" />
    <glyph glyph-name="fraction" unicode="&#x2044;" horiz-adv-x="1387" 
d="M14 37l-14 10l964 1489l198 -131l-3 -4l148 -147l-972 -1484l-181 127zM172 -14l920 1405l-113 75l-911 -1407z" />
    <glyph glyph-name="fraction" unicode="&#x2215;" horiz-adv-x="1387" 
d="M14 37l-14 10l964 1489l198 -131l-3 -4l148 -147l-972 -1484l-181 127zM172 -14l920 1405l-113 75l-911 -1407z" />
    <glyph glyph-name="Euro" unicode="&#x20ac;" horiz-adv-x="1264" 
d="M794 974l147 -147l-152 -503h248v-6l147 -147v-368h-926l-147 147h-6v371l-99 99h-6v560h105v289l246 227h676v-6l147 -147v-369h-380zM729 930h-270v241h518v275h-606l-216 -199v-317h-105v-180h105v-100h-105v-180h105v-470h832v274h-528v196h130l50 180h-180v100h220z
" />
    <glyph glyph-name="trademark" unicode="&#x2122;" horiz-adv-x="1776" 
d="M716 1437v59h315l2 -8l146 -145l2 -7l52 160h316v-6l147 -147v-940h-277l-51 51l-14 -51h-143l-65 65v-65h-277l-147 147h-6v519h-84v-666h-294l-147 147h-6v519h-32l-147 147h-6v280h663v-6zM613 1446h-563v-180h185v-666h200v666h178v180zM1132 1024l-138 422h-228
v-846h183v539l147 -539h73l147 539v-539h183v846h-229z" />
    <glyph glyph-name="minus" unicode="&#x2212;" horiz-adv-x="1287" 
d="M6 559h-6v301h1060v-6l147 -147v-295h-1054zM1010 609v201h-960v-201h960z" />
    <glyph glyph-name="fi" unicode="&#xfb01;" horiz-adv-x="1370" 
d="M720 1461v35h403v-6l147 -147v-1540h-397l-147 147h-6v585h-170v-732h-397l-147 147h-6v1316l230 230h461v-6zM353 0v732h417v-732h303v1002h-720v169h288v275h-391l-200 -200v-1246h303zM770 1446v-356h303v356h-303z" />
    <glyph glyph-name="fl" unicode="&#xfb02;" horiz-adv-x="1724" 
d="M1240 324h257v-6l147 -147v-368h-801l-147 147h-6v475h-140v-622h-397l-147 147h-6v1316l230 230h863v-6l147 -147v-1019zM353 0v622h278v270h-278v279h387v-1171h707v274h-404v1172h-793l-200 -200v-1246h303zM690 927v50h-140v-36h127z" />
    <glyph glyph-name="glyph231" horiz-adv-x="1525" 
d="M0 763h1298v-6l147 -147v-297h-1292l-147 147h-6v303zM50 510h1198v203h-1198v-203z" />
    <glyph glyph-name="glyph233" horiz-adv-x="602" 
d="M522 378h-369l-147 147h-6v395h375v-6l147 -147v-389zM325 575v295h-275v-295h275z" />
    <glyph glyph-name="glyph234" horiz-adv-x="0" 
 />
    <glyph glyph-name="glyph235" horiz-adv-x="0" 
 />
    <glyph glyph-name="glyph236" horiz-adv-x="0" 
 />
    <glyph glyph-name="glyph237" horiz-adv-x="0" 
 />
    <glyph glyph-name=".null" horiz-adv-x="0" 
 />
    </font>
</defs>
</svg>
